<svg xmlns="http://www.w3.org/2000/svg" xmlns:xlink="http://www.w3.org/1999/xlink" width="1200" zoomAndPan="magnify" viewBox="0 0 900 899.99999" height="1200" preserveAspectRatio="xMidYMid meet" version="1.0"><defs><clipPath id="4842bbb66b"><path d="M 0 89.4375 L 888 89.4375 L 888 810.9375 L 0 810.9375 Z M 0 89.4375 " clip-rule="nonzero"/></clipPath></defs><path fill="#4caf50" d="M 508.765625 422.917969 C 470.550781 419.167969 434.496094 411.375 402.628906 399.976562 L 485.113281 351.929688 C 511.648438 336.492188 552.460938 335.195312 576.398438 349.046875 L 651.960938 392.617188 L 660.039062 415.992188 C 610.285156 425.082031 557.9375 427.679688 508.765625 422.917969 Z M 876.0625 522.183594 L 805.113281 481.207031 L 782.472656 546.710938 C 769.78125 583.503906 717.867188 583.503906 705.175781 546.710938 L 673.882812 456.246094 C 640.714844 462.164062 606.824219 465.769531 572.9375 466.925781 C 573.226562 490.441406 577.117188 513.527344 584.90625 536.179688 C 602.789062 588.265625 639.707031 637.320312 692.195312 679.164062 L 803.667969 614.382812 L 871.300781 575.136719 C 897.980469 559.554688 900 535.890625 876.0625 522.183594 Z M 530.25 586.535156 C 510.351562 548.011719 499.96875 507.179688 500.402344 465.480469 C 495.785156 465.191406 491.316406 464.761719 486.84375 464.328125 C 435.941406 459.421875 388.929688 448.023438 347.972656 431.863281 L 204.628906 515.113281 C 178.097656 530.554688 176.078125 554.214844 200.015625 568.066406 L 275.582031 611.640625 C 357.921875 593.605469 444.59375 584.804688 530.25 586.535156 Z M 557.507812 630.109375 C 483.382812 625.203125 405.367188 630.109375 330.523438 643.527344 L 499.535156 741.207031 C 523.472656 755.058594 564.285156 753.757812 590.820312 738.320312 L 638.117188 710.761719 C 605.960938 685.800781 578.847656 658.820312 557.507812 630.109375 Z M 557.507812 630.109375 " fill-opacity="1" fill-rule="nonzero"/><g clip-path="url(#4842bbb66b)"><path fill="#f44336" d="M 503.574219 771.214844 L 518.859375 780.019531 L 473.289062 806.421875 L 465.789062 810.894531 L 0 541.808594 L 15.140625 533.003906 L 462.761719 272.71875 L 470.40625 277.191406 L 516.261719 303.597656 L 501.121094 312.398438 L 462.90625 290.464844 L 394.550781 330.144531 L 417.480469 343.417969 L 402.339844 352.21875 L 379.410156 338.945312 L 303.558594 383.097656 L 326.484375 396.371094 L 311.34375 405.171875 L 288.414062 391.898438 L 212.5625 436.046875 L 235.492188 449.320312 L 220.347656 458.125 L 197.421875 444.847656 L 121.566406 489 L 144.496094 502.273438 L 129.355469 511.074219 L 106.28125 497.800781 L 30.429688 541.953125 L 106.714844 586.101562 L 127.480469 573.980469 L 142.765625 582.785156 L 122 594.902344 L 198.429688 639.054688 L 219.195312 626.933594 L 234.480469 635.734375 L 213.714844 647.855469 L 290 692.003906 L 310.765625 679.886719 L 326.054688 688.6875 L 305.289062 700.804688 L 381.71875 744.957031 L 402.484375 732.835938 L 417.769531 741.636719 L 397.003906 753.757812 L 465.648438 793.4375 Z M 881.828125 259.589844 L 805.253906 481.207031 L 782.613281 546.710938 C 769.925781 583.503906 718.011719 583.503906 705.320312 546.710938 L 674.027344 456.246094 L 660.183594 415.992188 L 652.105469 392.617188 L 606.105469 259.445312 C 598.027344 236.070312 597.886719 210.535156 605.960938 187.160156 C 625.859375 130.3125 680.082031 89.480469 743.96875 89.480469 C 808.859375 89.480469 863.804688 131.753906 882.839844 190.335938 C 890.195312 212.84375 889.472656 237.226562 881.828125 259.589844 Z M 808.714844 236.214844 C 808.714844 200.433594 779.730469 171.433594 743.96875 171.433594 C 708.203125 171.433594 679.21875 200.433594 679.21875 236.214844 C 679.21875 272 708.203125 301 743.96875 301 C 779.730469 301 808.714844 272 808.714844 236.214844 Z M 808.714844 236.214844 " fill-opacity="1" fill-rule="nonzero"/></g><path fill="#ffffff" d="M 743.96875 301 C 779.730469 301 808.714844 272 808.714844 236.214844 C 808.714844 200.433594 779.730469 171.433594 743.96875 171.433594 C 708.203125 171.433594 679.21875 200.433594 679.21875 236.214844 C 679.21875 272 708.203125 301 743.96875 301 Z M 743.96875 301 " fill-opacity="1" fill-rule="nonzero"/></svg>