<svg xmlns="http://www.w3.org/2000/svg" xmlns:xlink="http://www.w3.org/1999/xlink" width="1200" zoomAndPan="magnify" viewBox="0 0 900 899.99999" height="1200" preserveAspectRatio="xMidYMid meet" version="1.0"><path fill="#f0a845" d="M 223.207031 654.984375 C 222.9375 655.53125 222.699219 656.09375 222.484375 656.667969 C 222.269531 657.242188 222.085938 657.824219 221.929688 658.414062 C 221.773438 659.007812 221.644531 659.605469 221.546875 660.210938 C 221.449219 660.8125 221.382812 661.421875 221.34375 662.03125 C 221.308594 662.640625 221.300781 663.253906 221.324219 663.863281 C 221.34375 664.476562 221.398438 665.085938 221.480469 665.691406 C 221.5625 666.296875 221.671875 666.898438 221.8125 667.496094 C 221.957031 668.089844 222.125 668.675781 222.324219 669.253906 C 222.523438 669.832031 222.75 670.402344 223.003906 670.957031 C 223.257812 671.515625 223.542969 672.054688 223.847656 672.585938 C 224.15625 673.113281 224.492188 673.625 224.847656 674.121094 C 225.207031 674.617188 225.589844 675.09375 225.996094 675.554688 C 226.398438 676.011719 226.828125 676.449219 227.273438 676.867188 C 227.722656 677.28125 228.191406 677.675781 228.679688 678.046875 C 229.164062 678.417969 229.667969 678.761719 230.191406 679.082031 C 230.710938 679.402344 231.246094 679.699219 231.796875 679.96875 C 248.570312 688.210938 265.757812 695.46875 283.363281 701.742188 C 300.96875 708.015625 318.871094 713.261719 337.078125 717.480469 C 355.285156 721.695312 373.675781 724.859375 392.246094 726.96875 C 410.8125 729.074219 429.445312 730.113281 448.132812 730.082031 C 453.835938 730.011719 459.535156 729.84375 465.230469 729.582031 C 470.925781 729.320312 476.617188 728.964844 482.300781 728.511719 C 487.988281 728.0625 493.664062 727.515625 499.328125 726.875 C 504.996094 726.230469 510.648438 725.496094 516.289062 724.667969 C 521.933594 723.835938 527.558594 722.914062 533.171875 721.898438 C 538.78125 720.878906 544.375 719.769531 549.949219 718.566406 C 555.519531 717.359375 561.074219 716.0625 566.605469 714.675781 C 572.136719 713.285156 577.640625 711.804688 583.121094 710.230469 C 588.605469 708.660156 594.058594 706.996094 599.484375 705.238281 C 604.910156 703.484375 610.304688 701.640625 615.667969 699.707031 C 621.03125 697.769531 626.363281 695.746094 631.660156 693.632812 C 636.957031 691.523438 642.214844 689.320312 647.4375 687.03125 C 652.664062 684.746094 657.847656 682.371094 662.992188 679.910156 C 668.132812 677.449219 673.234375 674.902344 678.296875 672.269531 C 683.355469 669.640625 688.367188 666.925781 693.335938 664.125 C 698.304688 661.328125 703.226562 658.445312 708.097656 655.484375 C 712.96875 652.519531 717.792969 649.476562 722.5625 646.355469 C 727.332031 643.230469 732.050781 640.027344 736.714844 636.746094 C 741.378906 633.464844 745.988281 630.109375 750.539062 626.675781 C 755.09375 623.238281 759.585938 619.730469 764.019531 616.144531 C 768.457031 612.558594 772.828125 608.902344 777.140625 605.171875 C 781.453125 601.441406 785.703125 597.640625 789.890625 593.769531 C 794.078125 589.894531 798.195312 585.953125 802.25 581.945312 C 806.304688 577.933594 810.292969 573.859375 814.210938 569.714844 C 818.128906 565.574219 821.980469 561.367188 825.757812 557.09375 C 829.535156 552.824219 833.242188 548.492188 836.875 544.097656 C 840.507812 539.699219 844.066406 535.246094 847.554688 530.734375 C 851.039062 526.21875 854.445312 521.648438 857.78125 517.023438 C 861.113281 512.394531 864.367188 507.714844 867.542969 502.976562 C 870.71875 498.242188 873.816406 493.453125 876.832031 488.613281 C 879.851562 483.773438 882.785156 478.886719 885.640625 473.949219 C 888.492188 469.011719 891.261719 464.03125 893.949219 459 C 894.707031 457.621094 895.285156 456.171875 895.675781 454.644531 C 896.066406 453.121094 896.261719 451.574219 896.261719 450 C 896.261719 448.425781 896.066406 446.878906 895.675781 445.355469 C 895.285156 443.828125 894.707031 442.378906 893.949219 441 C 881.417969 418.160156 867.308594 396.335938 851.625 375.535156 C 835.9375 354.730469 818.839844 335.164062 800.328125 316.828125 C 799.902344 316.351562 799.457031 315.898438 798.988281 315.46875 C 798.519531 315.039062 798.027344 314.632812 797.515625 314.25 C 797.003906 313.871094 796.472656 313.515625 795.925781 313.191406 C 795.378906 312.863281 794.816406 312.566406 794.238281 312.296875 C 793.660156 312.027344 793.070312 311.789062 792.464844 311.582031 C 791.863281 311.375 791.25 311.195312 790.632812 311.050781 C 790.011719 310.90625 789.382812 310.792969 788.75 310.710938 C 788.117188 310.628906 787.484375 310.578125 786.847656 310.5625 C 786.210938 310.546875 785.574219 310.5625 784.9375 310.613281 C 784.300781 310.660156 783.667969 310.742188 783.042969 310.855469 C 782.414062 310.96875 781.792969 311.113281 781.183594 311.292969 C 780.570312 311.46875 779.96875 311.675781 779.375 311.914062 C 778.785156 312.152344 778.207031 312.421875 777.644531 312.71875 C 777.078125 313.019531 776.53125 313.34375 776.003906 313.699219 C 775.472656 314.050781 774.960938 314.433594 774.46875 314.839844 C 773.976562 315.246094 773.507812 315.675781 773.0625 316.128906 C 772.613281 316.582031 772.191406 317.058594 771.792969 317.558594 C 771.394531 318.054688 771.023438 318.570312 770.675781 319.109375 C 770.332031 319.644531 770.011719 320.195312 769.722656 320.765625 C 769.433594 321.332031 769.175781 321.914062 768.945312 322.507812 C 768.714844 323.105469 768.519531 323.710938 768.351562 324.324219 C 768.183594 324.941406 768.046875 325.5625 767.945312 326.191406 C 767.839844 326.820312 767.769531 327.453125 767.730469 328.089844 C 767.691406 328.726562 767.683594 329.363281 767.710938 330 C 767.738281 330.636719 767.796875 331.269531 767.886719 331.902344 C 767.976562 332.53125 768.101562 333.15625 768.257812 333.777344 C 768.414062 334.394531 768.597656 335.003906 768.816406 335.601562 C 769.035156 336.203125 769.28125 336.789062 769.558594 337.363281 C 769.835938 337.9375 770.144531 338.496094 770.476562 339.039062 C 770.8125 339.582031 771.175781 340.105469 771.5625 340.609375 C 771.953125 341.117188 772.367188 341.601562 772.804688 342.0625 C 773.242188 342.527344 773.703125 342.964844 774.1875 343.382812 C 790.175781 359.234375 805.035156 376.082031 818.757812 393.933594 C 832.484375 411.785156 844.949219 430.472656 856.15625 450 C 853.628906 454.519531 851.023438 458.996094 848.347656 463.429688 C 845.667969 467.863281 842.921875 472.253906 840.101562 476.597656 C 837.28125 480.941406 834.386719 485.238281 831.425781 489.488281 C 828.464844 493.738281 825.4375 497.9375 822.335938 502.085938 C 819.238281 506.238281 816.074219 510.335938 812.839844 514.382812 C 809.605469 518.429688 806.308594 522.421875 802.945312 526.359375 C 799.582031 530.300781 796.152344 534.183594 792.664062 538.007812 C 789.171875 541.835938 785.621094 545.601562 782.007812 549.3125 C 778.390625 553.023438 774.71875 556.671875 770.984375 560.261719 C 767.25 563.851562 763.460938 567.382812 759.609375 570.847656 C 755.761719 574.3125 751.855469 577.714844 747.894531 581.054688 C 743.9375 584.390625 739.921875 587.664062 735.855469 590.871094 C 731.785156 594.078125 727.667969 597.214844 723.496094 600.289062 C 719.328125 603.359375 715.109375 606.363281 710.839844 609.296875 C 706.570312 612.230469 702.253906 615.09375 697.894531 617.886719 C 693.53125 620.675781 689.125 623.398438 684.671875 626.046875 C 680.222656 628.695312 675.726562 631.269531 671.191406 633.769531 C 666.65625 636.269531 662.082031 638.695312 657.464844 641.046875 C 652.851562 643.398438 648.199219 645.675781 643.507812 647.875 C 638.820312 650.074219 634.097656 652.195312 629.335938 654.238281 C 624.578125 656.28125 619.785156 658.25 614.964844 660.136719 C 610.140625 662.023438 605.289062 663.832031 600.40625 665.5625 C 595.523438 667.289062 590.613281 668.9375 585.675781 670.503906 C 580.738281 672.074219 575.777344 673.558594 570.792969 674.964844 C 565.808594 676.371094 560.800781 677.695312 555.773438 678.9375 C 550.746094 680.179688 545.699219 681.335938 540.632812 682.414062 C 535.566406 683.492188 530.480469 684.484375 525.382812 685.394531 C 520.285156 686.304688 515.171875 687.128906 510.046875 687.871094 C 504.917969 688.617188 499.78125 689.273438 494.636719 689.847656 C 489.488281 690.421875 484.332031 690.914062 479.167969 691.320312 C 474.003906 691.726562 468.835938 692.046875 463.664062 692.28125 C 458.488281 692.519531 453.3125 692.671875 448.132812 692.738281 C 430.859375 692.769531 413.640625 691.8125 396.480469 689.863281 C 379.316406 687.917969 362.320312 684.996094 345.496094 681.097656 C 328.667969 677.203125 312.117188 672.355469 295.847656 666.558594 C 279.578125 660.761719 263.691406 654.050781 248.191406 646.429688 C 247.640625 646.164062 247.082031 645.921875 246.507812 645.707031 C 245.933594 645.492188 245.351562 645.308594 244.761719 645.152344 C 244.171875 644.992188 243.574219 644.867188 242.96875 644.769531 C 242.367188 644.671875 241.757812 644.601562 241.148438 644.5625 C 240.539062 644.523438 239.925781 644.515625 239.316406 644.539062 C 238.707031 644.558594 238.097656 644.613281 237.492188 644.691406 C 236.882812 644.773438 236.285156 644.886719 235.6875 645.027344 C 235.09375 645.164062 234.507812 645.335938 233.929688 645.535156 C 233.347656 645.730469 232.78125 645.957031 232.226562 646.210938 C 231.667969 646.464844 231.125 646.746094 230.597656 647.050781 C 230.070312 647.359375 229.554688 647.691406 229.058594 648.050781 C 228.5625 648.40625 228.085938 648.789062 227.628906 649.191406 C 227.167969 649.597656 226.730469 650.023438 226.3125 650.46875 C 225.898438 650.917969 225.503906 651.382812 225.132812 651.871094 C 224.761719 652.355469 224.414062 652.859375 224.09375 653.378906 C 223.773438 653.898438 223.476562 654.433594 223.207031 654.984375 Z M 223.207031 654.984375 " fill-opacity="1" fill-rule="nonzero"/><path fill="#f0a845" d="M 448.132812 599.378906 C 450.496094 599.378906 452.859375 599.328125 455.222656 599.21875 C 457.585938 599.109375 459.945312 598.945312 462.296875 598.722656 C 464.652344 598.503906 467 598.226562 469.339844 597.894531 C 471.683594 597.5625 474.015625 597.175781 476.335938 596.730469 C 478.660156 596.289062 480.972656 595.789062 483.269531 595.238281 C 485.570312 594.683594 487.855469 594.078125 490.125 593.414062 C 492.394531 592.753906 494.648438 592.039062 496.882812 591.269531 C 499.121094 590.5 501.335938 589.679688 503.535156 588.808594 C 505.730469 587.933594 507.90625 587.007812 510.058594 586.03125 C 512.214844 585.054688 514.34375 584.027344 516.449219 582.949219 C 518.550781 581.871094 520.628906 580.742188 522.679688 579.566406 C 524.730469 578.386719 526.753906 577.164062 528.746094 575.890625 C 530.738281 574.617188 532.703125 573.296875 534.632812 571.933594 C 536.5625 570.566406 538.457031 569.15625 540.320312 567.699219 C 542.183594 566.242188 544.011719 564.742188 545.804688 563.199219 C 547.597656 561.660156 549.351562 560.074219 551.066406 558.449219 C 552.785156 556.820312 554.460938 555.15625 556.097656 553.449219 C 557.738281 551.742188 559.332031 550 560.886719 548.21875 C 562.441406 546.4375 563.953125 544.617188 565.421875 542.765625 C 566.890625 540.914062 568.316406 539.023438 569.695312 537.105469 C 571.074219 535.183594 572.40625 533.230469 573.691406 531.246094 C 574.976562 529.261719 576.214844 527.246094 577.40625 525.203125 C 578.597656 523.160156 579.738281 521.089844 580.832031 518.992188 C 581.921875 516.898438 582.964844 514.773438 583.957031 512.628906 C 584.945312 510.480469 585.886719 508.3125 586.777344 506.121094 C 587.664062 503.929688 588.5 501.71875 589.28125 499.488281 C 590.066406 497.253906 590.796875 495.007812 591.472656 492.742188 C 592.148438 490.476562 592.773438 488.195312 593.339844 485.898438 C 593.910156 483.605469 594.421875 481.296875 594.882812 478.976562 C 595.339844 476.65625 595.742188 474.328125 596.089844 471.988281 C 596.4375 469.648438 596.730469 467.304688 596.96875 464.949219 C 597.203125 462.597656 597.386719 460.242188 597.511719 457.878906 C 597.542969 457.269531 597.542969 456.65625 597.515625 456.046875 C 597.484375 455.433594 597.425781 454.828125 597.339844 454.222656 C 597.25 453.617188 597.132812 453.015625 596.984375 452.421875 C 596.835938 451.828125 596.660156 451.246094 596.457031 450.667969 C 596.25 450.089844 596.019531 449.527344 595.757812 448.972656 C 595.496094 448.417969 595.210938 447.878906 594.898438 447.355469 C 594.585938 446.828125 594.246094 446.320312 593.882812 445.828125 C 593.519531 445.335938 593.132812 444.863281 592.722656 444.410156 C 592.3125 443.957031 591.878906 443.523438 591.429688 443.109375 C 590.976562 442.699219 590.503906 442.308594 590.011719 441.945312 C 589.523438 441.578125 589.015625 441.238281 588.492188 440.921875 C 587.96875 440.609375 587.429688 440.320312 586.875 440.058594 C 586.324219 439.792969 585.757812 439.558594 585.183594 439.351562 C 584.609375 439.144531 584.023438 438.96875 583.429688 438.816406 C 582.835938 438.667969 582.238281 438.546875 581.632812 438.457031 C 581.027344 438.367188 580.421875 438.304688 579.808594 438.273438 C 579.195312 438.226562 578.582031 438.210938 577.964844 438.226562 C 577.351562 438.242188 576.738281 438.289062 576.128906 438.367188 C 575.515625 438.441406 574.914062 438.550781 574.3125 438.691406 C 573.714844 438.828125 573.121094 438.996094 572.539062 439.195312 C 571.957031 439.394531 571.386719 439.621094 570.828125 439.878906 C 570.269531 440.132812 569.722656 440.417969 569.191406 440.730469 C 568.660156 441.042969 568.148438 441.378906 567.652344 441.742188 C 567.15625 442.105469 566.679688 442.492188 566.222656 442.90625 C 565.765625 443.316406 565.328125 443.75 564.917969 444.207031 C 564.503906 444.664062 564.113281 445.140625 563.75 445.632812 C 563.382812 446.128906 563.046875 446.640625 562.730469 447.171875 C 562.417969 447.703125 562.132812 448.246094 561.875 448.804688 C 561.617188 449.363281 561.386719 449.933594 561.1875 450.515625 C 560.988281 451.097656 560.816406 451.6875 560.675781 452.285156 C 560.535156 452.886719 560.425781 453.488281 560.347656 454.101562 C 560.269531 454.710938 560.21875 455.324219 560.203125 455.9375 C 560.085938 458.203125 559.894531 460.460938 559.640625 462.710938 C 559.382812 464.964844 559.058594 467.207031 558.667969 469.4375 C 558.273438 471.671875 557.816406 473.890625 557.289062 476.09375 C 556.761719 478.300781 556.167969 480.484375 555.507812 482.65625 C 554.847656 484.824219 554.121094 486.96875 553.332031 489.09375 C 552.542969 491.21875 551.6875 493.316406 550.769531 495.390625 C 549.851562 497.464844 548.875 499.507812 547.832031 501.519531 C 546.789062 503.53125 545.6875 505.511719 544.527344 507.457031 C 543.367188 509.40625 542.144531 511.316406 540.867188 513.1875 C 539.589844 515.058594 538.257812 516.890625 536.871094 518.683594 C 535.480469 520.476562 534.039062 522.222656 532.542969 523.925781 C 531.050781 525.628906 529.503906 527.289062 527.910156 528.898438 C 526.3125 530.507812 524.671875 532.066406 522.980469 533.578125 C 521.289062 535.089844 519.554688 536.546875 517.777344 537.953125 C 515.996094 539.359375 514.179688 540.707031 512.316406 542.003906 C 510.457031 543.296875 508.558594 544.535156 506.625 545.714844 C 504.6875 546.894531 502.71875 548.011719 500.714844 549.074219 C 498.710938 550.132812 496.675781 551.132812 494.613281 552.066406 C 492.546875 553.003906 490.457031 553.878906 488.339844 554.6875 C 486.222656 555.496094 484.082031 556.242188 481.921875 556.921875 C 479.757812 557.601562 477.578125 558.214844 475.378906 558.761719 C 473.179688 559.308594 470.964844 559.789062 468.734375 560.203125 C 466.503906 560.613281 464.265625 560.960938 462.015625 561.238281 C 459.765625 561.515625 457.511719 561.722656 455.25 561.863281 C 452.984375 562.003906 450.722656 562.074219 448.453125 562.078125 C 446.1875 562.078125 443.921875 562.011719 441.660156 561.878906 C 439.398438 561.742188 437.140625 561.539062 434.890625 561.269531 C 432.640625 560.996094 430.398438 560.65625 428.171875 560.25 C 425.941406 559.839844 423.726562 559.367188 421.523438 558.824219 C 419.324219 558.28125 417.140625 557.671875 414.976562 557 C 412.8125 556.324219 410.671875 555.582031 408.550781 554.777344 C 406.433594 553.972656 404.339844 553.105469 402.273438 552.175781 C 401.714844 551.898438 401.140625 551.652344 400.554688 551.433594 C 399.96875 551.214844 399.375 551.023438 398.769531 550.867188 C 398.167969 550.707031 397.554688 550.578125 396.9375 550.480469 C 396.320312 550.382812 395.703125 550.316406 395.078125 550.28125 C 394.453125 550.246094 393.828125 550.242188 393.207031 550.269531 C 392.582031 550.296875 391.960938 550.355469 391.339844 550.445312 C 390.722656 550.535156 390.109375 550.65625 389.503906 550.804688 C 388.898438 550.957031 388.300781 551.136719 387.714844 551.347656 C 387.125 551.558594 386.550781 551.800781 385.984375 552.070312 C 385.421875 552.335938 384.871094 552.632812 384.335938 552.957031 C 383.804688 553.28125 383.285156 553.632812 382.789062 554.007812 C 382.289062 554.382812 381.808594 554.785156 381.351562 555.207031 C 380.890625 555.632812 380.457031 556.078125 380.039062 556.546875 C 379.625 557.011719 379.238281 557.5 378.871094 558.007812 C 378.507812 558.515625 378.167969 559.039062 377.855469 559.578125 C 377.542969 560.121094 377.257812 560.675781 377 561.246094 C 376.742188 561.8125 376.515625 562.394531 376.316406 562.988281 C 376.117188 563.578125 375.949219 564.179688 375.8125 564.789062 C 375.671875 565.398438 375.566406 566.015625 375.488281 566.632812 C 375.414062 567.253906 375.367188 567.875 375.351562 568.5 C 375.339844 569.125 375.355469 569.75 375.40625 570.371094 C 375.453125 570.996094 375.53125 571.613281 375.644531 572.230469 C 375.753906 572.84375 375.894531 573.453125 376.066406 574.054688 C 376.238281 574.652344 376.441406 575.246094 376.671875 575.824219 C 376.902344 576.40625 377.160156 576.972656 377.449219 577.527344 C 377.738281 578.082031 378.050781 578.621094 378.394531 579.144531 C 378.734375 579.667969 379.101562 580.171875 379.496094 580.65625 C 379.886719 581.144531 380.304688 581.609375 380.742188 582.050781 C 381.183594 582.496094 381.644531 582.917969 382.125 583.316406 C 382.605469 583.714844 383.105469 584.085938 383.625 584.433594 C 384.144531 584.78125 384.679688 585.105469 385.230469 585.398438 C 385.78125 585.691406 386.347656 585.957031 386.925781 586.195312 C 396.539062 590.546875 406.507812 593.835938 416.824219 596.058594 C 427.140625 598.28125 437.578125 599.386719 448.132812 599.378906 Z M 448.132812 599.378906 " fill-opacity="1" fill-rule="nonzero"/><path fill="#f0a845" d="M 867.882812 172.644531 L 728.214844 257.640625 C 718.003906 250.566406 707.539062 243.886719 696.820312 237.605469 C 686.101562 231.320312 675.164062 225.453125 664.003906 219.996094 C 652.839844 214.539062 641.492188 209.511719 629.949219 204.914062 C 618.40625 200.316406 606.710938 196.164062 594.855469 192.449219 C 583 188.734375 571.019531 185.476562 558.917969 182.667969 C 546.816406 179.859375 534.625 177.515625 522.347656 175.628906 C 510.066406 173.742188 497.734375 172.324219 485.347656 171.371094 C 472.960938 170.417969 460.554688 169.933594 448.132812 169.917969 C 442.429688 169.988281 436.730469 170.15625 431.035156 170.417969 C 425.339844 170.679688 419.648438 171.035156 413.964844 171.488281 C 408.277344 171.9375 402.601562 172.484375 396.9375 173.125 C 391.269531 173.769531 385.617188 174.503906 379.976562 175.332031 C 374.332031 176.164062 368.707031 177.085938 363.09375 178.101562 C 357.484375 179.121094 351.890625 180.230469 346.316406 181.433594 C 340.742188 182.640625 335.191406 183.9375 329.660156 185.324219 C 324.128906 186.714844 318.625 188.195312 313.144531 189.769531 C 307.660156 191.339844 302.207031 193.003906 296.78125 194.761719 C 291.355469 196.515625 285.960938 198.359375 280.597656 200.292969 C 275.234375 202.230469 269.902344 204.253906 264.605469 206.367188 C 259.308594 208.476562 254.050781 210.679688 248.828125 212.964844 C 243.601562 215.253906 238.417969 217.628906 233.273438 220.089844 C 228.132812 222.550781 223.03125 225.097656 217.96875 227.730469 C 212.910156 230.359375 207.898438 233.074219 202.929688 235.875 C 197.960938 238.671875 193.039062 241.554688 188.167969 244.515625 C 183.296875 247.480469 178.472656 250.523438 173.703125 253.644531 C 168.929688 256.769531 164.214844 259.972656 159.550781 263.253906 C 154.886719 266.535156 150.277344 269.890625 145.726562 273.324219 C 141.171875 276.761719 136.679688 280.269531 132.246094 283.855469 C 127.808594 287.441406 123.4375 291.097656 119.125 294.828125 C 114.808594 298.558594 110.5625 302.359375 106.375 306.230469 C 102.1875 310.105469 98.066406 314.046875 94.015625 318.054688 C 89.960938 322.066406 85.972656 326.140625 82.054688 330.285156 C 78.136719 334.425781 74.285156 338.632812 70.507812 342.90625 C 66.730469 347.175781 63.023438 351.507812 59.390625 355.902344 C 55.757812 360.300781 52.199219 364.753906 48.710938 369.265625 C 45.226562 373.78125 41.816406 378.351562 38.484375 382.976562 C 35.152344 387.605469 31.898438 392.285156 28.722656 397.023438 C 25.546875 401.757812 22.449219 406.546875 19.433594 411.386719 C 16.414062 416.226562 13.480469 421.113281 10.625 426.050781 C 7.773438 430.988281 5.003906 435.96875 2.316406 441 C 1.558594 442.378906 0.980469 443.828125 0.589844 445.355469 C 0.199219 446.878906 0.00390625 448.425781 0.00390625 450 C 0.00390625 451.574219 0.199219 453.121094 0.589844 454.644531 C 0.980469 456.171875 1.558594 457.621094 2.316406 459 C 10.773438 474.257812 19.945312 489.070312 29.839844 503.441406 C 39.730469 517.808594 50.289062 531.667969 61.523438 545.015625 C 72.753906 558.363281 84.605469 571.136719 97.074219 583.339844 C 109.542969 595.539062 122.570312 607.109375 136.15625 618.050781 L 8.960938 695.464844 C 8.097656 695.992188 7.285156 696.582031 6.515625 697.242188 C 5.75 697.902344 5.039062 698.617188 4.386719 699.390625 C 3.738281 700.164062 3.152344 700.984375 2.636719 701.855469 C 2.117188 702.722656 1.671875 703.628906 1.304688 704.570312 C 0.933594 705.511719 0.640625 706.476562 0.425781 707.464844 C 0.214844 708.453125 0.0820312 709.453125 0.0273438 710.460938 C -0.0234375 711.472656 0.0078125 712.480469 0.121094 713.484375 C 0.234375 714.488281 0.425781 715.480469 0.699219 716.453125 C 0.972656 717.425781 1.320312 718.371094 1.75 719.289062 C 2.175781 720.207031 2.671875 721.082031 3.242188 721.917969 C 3.8125 722.753906 4.445312 723.539062 5.140625 724.273438 C 5.835938 725.003906 6.589844 725.679688 7.394531 726.289062 C 8.199219 726.898438 9.050781 727.441406 9.945312 727.914062 C 10.839844 728.386719 11.765625 728.785156 12.722656 729.109375 C 13.683594 729.429688 14.660156 729.671875 15.65625 729.835938 C 16.65625 730 17.660156 730.082031 18.671875 730.082031 C 22.167969 730.097656 25.402344 729.1875 28.382812 727.355469 L 346.144531 533.949219 L 887.304688 204.535156 C 887.835938 204.222656 888.351562 203.882812 888.851562 203.519531 C 889.351562 203.15625 889.832031 202.769531 890.292969 202.359375 C 890.753906 201.945312 891.195312 201.511719 891.613281 201.058594 C 892.03125 200.601562 892.425781 200.128906 892.796875 199.632812 C 893.167969 199.140625 893.511719 198.628906 893.832031 198.097656 C 894.152344 197.570312 894.445312 197.027344 894.710938 196.46875 C 894.980469 195.910156 895.21875 195.339844 895.425781 194.761719 C 895.636719 194.179688 895.816406 193.589844 895.96875 192.988281 C 896.117188 192.390625 896.238281 191.785156 896.332031 191.171875 C 896.421875 190.5625 896.480469 189.945312 896.511719 189.328125 C 896.542969 188.710938 896.542969 188.09375 896.511719 187.476562 C 896.476562 186.859375 896.417969 186.246094 896.324219 185.636719 C 896.230469 185.023438 896.109375 184.417969 895.957031 183.820312 C 895.804688 183.21875 895.621094 182.628906 895.410156 182.050781 C 895.199219 181.46875 894.960938 180.898438 894.695312 180.34375 C 894.425781 179.785156 894.132812 179.242188 893.808594 178.714844 C 893.488281 178.1875 893.140625 177.675781 892.769531 177.183594 C 892.398438 176.6875 892 176.214844 891.582031 175.761719 C 891.164062 175.308594 890.722656 174.875 890.261719 174.464844 C 889.796875 174.054688 889.316406 173.667969 888.816406 173.304688 C 888.316406 172.941406 887.796875 172.605469 887.265625 172.292969 C 886.730469 171.984375 886.183594 171.699219 885.621094 171.441406 C 885.058594 171.183594 884.484375 170.957031 883.898438 170.757812 C 883.316406 170.558594 882.722656 170.386719 882.121094 170.246094 C 881.515625 170.105469 880.910156 169.992188 880.296875 169.914062 C 879.683594 169.832031 879.070312 169.78125 878.453125 169.761719 C 877.832031 169.742188 877.214844 169.753906 876.601562 169.796875 C 875.984375 169.839844 875.371094 169.910156 874.761719 170.011719 C 874.152344 170.117188 873.546875 170.25 872.953125 170.410156 C 872.355469 170.574219 871.769531 170.765625 871.191406 170.984375 C 870.613281 171.207031 870.046875 171.457031 869.496094 171.730469 C 868.945312 172.007812 868.40625 172.3125 867.882812 172.644531 Z M 345.0625 490.96875 C 344.445312 489.457031 343.859375 487.933594 343.308594 486.394531 C 342.757812 484.859375 342.242188 483.308594 341.757812 481.75 C 341.273438 480.191406 340.828125 478.621094 340.414062 477.042969 C 340 475.460938 339.621094 473.875 339.277344 472.277344 C 338.933594 470.683594 338.628906 469.078125 338.355469 467.46875 C 338.082031 465.859375 337.84375 464.246094 337.644531 462.625 C 337.441406 461.003906 337.277344 459.382812 337.148438 457.753906 C 337.019531 456.125 336.925781 454.496094 336.867188 452.867188 C 336.808594 451.234375 336.789062 449.601562 336.800781 447.96875 C 336.816406 446.335938 336.867188 444.707031 336.953125 443.074219 C 337.039062 441.445312 337.164062 439.816406 337.320312 438.191406 C 337.480469 436.566406 337.671875 434.945312 337.902344 433.332031 C 338.132812 431.714844 338.398438 430.101562 338.699219 428.5 C 339 426.894531 339.335938 425.296875 339.707031 423.707031 C 340.078125 422.117188 340.484375 420.535156 340.925781 418.964844 C 341.367188 417.394531 341.84375 415.832031 342.351562 414.28125 C 342.863281 412.730469 343.40625 411.191406 343.984375 409.664062 C 344.5625 408.136719 345.175781 406.625 345.820312 405.125 C 346.464844 403.625 347.140625 402.140625 347.851562 400.667969 C 348.5625 399.199219 349.304688 397.746094 350.078125 396.308594 C 350.855469 394.871094 351.660156 393.453125 352.496094 392.050781 C 353.335938 390.648438 354.203125 389.265625 355.101562 387.902344 C 356 386.539062 356.925781 385.195312 357.882812 383.875 C 358.84375 382.550781 359.828125 381.25 360.84375 379.972656 C 361.859375 378.695312 362.902344 377.4375 363.972656 376.207031 C 365.042969 374.972656 366.140625 373.765625 367.261719 372.582031 C 368.386719 371.394531 369.535156 370.238281 370.710938 369.101562 C 371.886719 367.96875 373.085938 366.863281 374.308594 365.78125 C 375.53125 364.703125 376.78125 363.648438 378.050781 362.621094 C 379.320312 361.597656 380.613281 360.601562 381.925781 359.632812 C 383.242188 358.664062 384.574219 357.722656 385.929688 356.8125 C 387.285156 355.90625 388.664062 355.023438 390.058594 354.175781 C 391.453125 353.328125 392.863281 352.511719 394.292969 351.722656 C 395.726562 350.9375 397.171875 350.183594 398.636719 349.460938 C 400.101562 348.738281 401.578125 348.046875 403.074219 347.390625 C 404.570312 346.730469 406.078125 346.109375 407.597656 345.515625 C 409.121094 344.925781 410.65625 344.371094 412.203125 343.847656 C 413.746094 343.324219 415.304688 342.835938 416.875 342.378906 C 418.441406 341.925781 420.019531 341.507812 421.605469 341.121094 C 423.191406 340.738281 424.785156 340.386719 426.386719 340.074219 C 427.992188 339.757812 429.597656 339.480469 431.214844 339.238281 C 432.828125 338.992188 434.445312 338.785156 436.070312 338.613281 C 437.695312 338.441406 439.320312 338.304688 440.949219 338.207031 C 442.578125 338.105469 444.210938 338.042969 445.84375 338.015625 C 447.476562 337.984375 449.105469 337.996094 450.738281 338.039062 C 452.371094 338.082031 454 338.164062 455.628906 338.277344 C 457.257812 338.394531 458.882812 338.546875 460.503906 338.734375 C 462.125 338.921875 463.742188 339.144531 465.355469 339.402344 C 466.96875 339.664062 468.574219 339.957031 470.171875 340.289062 C 471.769531 340.617188 473.363281 340.984375 474.945312 341.382812 C 476.527344 341.78125 478.101562 342.21875 479.664062 342.6875 C 481.226562 343.15625 482.78125 343.660156 484.320312 344.199219 C 485.863281 344.738281 487.390625 345.308594 488.90625 345.914062 C 490.421875 346.519531 491.925781 347.160156 493.414062 347.832031 C 494.902344 348.503906 496.375 349.207031 497.832031 349.945312 C 499.289062 350.679688 500.726562 351.449219 502.148438 352.25 C 503.574219 353.050781 504.976562 353.882812 506.363281 354.746094 C 507.75 355.609375 509.117188 356.5 510.464844 357.421875 C 511.808594 358.347656 513.136719 359.296875 514.441406 360.28125 C 515.746094 361.261719 517.027344 362.269531 518.289062 363.308594 C 519.546875 364.347656 520.785156 365.410156 521.996094 366.503906 C 523.210938 367.597656 524.398438 368.714844 525.5625 369.859375 C 526.726562 371.007812 527.863281 372.175781 528.976562 373.371094 C 530.089844 374.566406 531.175781 375.785156 532.230469 377.027344 Z M 565.019531 357.011719 C 563.617188 355.257812 562.175781 353.539062 560.695312 351.851562 C 559.214844 350.160156 557.699219 348.507812 556.144531 346.886719 C 554.589844 345.265625 553 343.683594 551.371094 342.136719 C 549.746094 340.585938 548.085938 339.078125 546.390625 337.601562 C 544.695312 336.128906 542.96875 334.695312 541.210938 333.300781 C 539.453125 331.902344 537.664062 330.550781 535.84375 329.234375 C 534.023438 327.917969 532.171875 326.648438 530.296875 325.414062 C 528.417969 324.183594 526.511719 322.996094 524.582031 321.851562 C 522.652344 320.703125 520.695312 319.601562 518.714844 318.546875 C 516.734375 317.488281 514.730469 316.476562 512.703125 315.507812 C 510.675781 314.542969 508.628906 313.621094 506.5625 312.746094 C 504.492188 311.871094 502.40625 311.042969 500.300781 310.265625 C 498.195312 309.484375 496.074219 308.75 493.9375 308.066406 C 491.796875 307.382812 489.644531 306.746094 487.476562 306.15625 C 485.308594 305.570312 483.132812 305.03125 480.941406 304.542969 C 478.75 304.050781 476.546875 303.613281 474.335938 303.222656 C 472.125 302.832031 469.90625 302.492188 467.679688 302.199219 C 465.453125 301.910156 463.222656 301.671875 460.984375 301.480469 C 458.746094 301.292969 456.503906 301.152344 454.261719 301.0625 C 452.019531 300.976562 449.773438 300.9375 447.527344 300.949219 C 445.28125 300.964844 443.039062 301.027344 440.796875 301.140625 C 438.554688 301.253906 436.316406 301.417969 434.082031 301.632812 C 431.84375 301.847656 429.617188 302.113281 427.394531 302.429688 C 425.171875 302.746094 422.957031 303.109375 420.75 303.523438 C 418.542969 303.941406 416.347656 304.40625 414.160156 304.917969 C 411.972656 305.433594 409.800781 305.996094 407.640625 306.609375 C 405.480469 307.222656 403.335938 307.882812 401.203125 308.589844 C 399.074219 309.300781 396.960938 310.058594 394.863281 310.863281 C 392.769531 311.664062 390.691406 312.515625 388.632812 313.414062 C 386.574219 314.3125 384.539062 315.257812 382.523438 316.246094 C 380.507812 317.238281 378.515625 318.269531 376.546875 319.351562 C 374.578125 320.429688 372.632812 321.554688 370.714844 322.722656 C 368.796875 323.890625 366.90625 325.097656 365.042969 326.351562 C 363.179688 327.605469 361.347656 328.898438 359.542969 330.234375 C 357.734375 331.570312 355.960938 332.945312 354.21875 334.359375 C 352.476562 335.773438 350.765625 337.226562 349.085938 338.722656 C 347.410156 340.214844 345.765625 341.742188 344.15625 343.308594 C 342.550781 344.875 340.976562 346.476562 339.441406 348.117188 C 337.902344 349.753906 336.40625 351.425781 334.945312 353.128906 C 333.484375 354.835938 332.0625 356.570312 330.679688 358.339844 C 329.296875 360.109375 327.953125 361.910156 326.652344 363.738281 C 325.351562 365.566406 324.089844 367.425781 322.875 369.3125 C 321.65625 371.199219 320.480469 373.113281 319.351562 375.050781 C 318.21875 376.992188 317.132812 378.953125 316.089844 380.945312 C 315.046875 382.933594 314.046875 384.941406 313.09375 386.976562 C 312.144531 389.011719 311.238281 391.0625 310.378906 393.136719 C 309.519531 395.210938 308.707031 397.304688 307.941406 399.414062 C 307.175781 401.527344 306.457031 403.652344 305.789062 405.796875 C 305.121094 407.941406 304.5 410.097656 303.925781 412.269531 C 303.355469 414.441406 302.832031 416.625 302.359375 418.816406 C 301.882812 421.011719 301.460938 423.21875 301.085938 425.429688 C 300.710938 427.644531 300.386719 429.867188 300.113281 432.09375 C 299.839844 434.324219 299.617188 436.558594 299.441406 438.796875 C 299.269531 441.035156 299.148438 443.277344 299.074219 445.519531 C 299.003906 447.765625 298.980469 450.007812 299.007812 452.253906 C 299.039062 454.5 299.117188 456.742188 299.25 458.984375 C 299.378906 461.226562 299.558594 463.464844 299.789062 465.699219 C 300.019531 467.929688 300.300781 470.15625 300.632812 472.378906 C 300.964844 474.597656 301.347656 476.8125 301.777344 479.015625 C 302.210938 481.21875 302.691406 483.410156 303.21875 485.59375 C 303.75 487.773438 304.328125 489.945312 304.957031 492.101562 C 305.585938 494.253906 306.261719 496.394531 306.984375 498.523438 C 307.710938 500.648438 308.480469 502.753906 309.300781 504.84375 C 310.121094 506.9375 310.988281 509.007812 311.902344 511.058594 L 169.992188 597.472656 C 156.871094 587.472656 144.273438 576.851562 132.203125 565.609375 C 120.132812 554.363281 108.644531 542.550781 97.742188 530.171875 C 86.839844 517.792969 76.574219 504.90625 66.945312 491.511719 C 57.316406 478.117188 48.371094 464.277344 40.109375 450 C 42.636719 445.480469 45.242188 441.003906 47.917969 436.570312 C 50.597656 432.136719 53.34375 427.746094 56.164062 423.402344 C 58.984375 419.058594 61.878906 414.761719 64.839844 410.511719 C 67.800781 406.261719 70.828125 402.0625 73.929688 397.914062 C 77.027344 393.761719 80.191406 389.664062 83.425781 385.617188 C 86.660156 381.570312 89.957031 377.578125 93.320312 373.640625 C 96.683594 369.699219 100.113281 365.816406 103.601562 361.992188 C 107.09375 358.164062 110.644531 354.398438 114.257812 350.6875 C 117.875 346.976562 121.546875 343.328125 125.28125 339.738281 C 129.015625 336.148438 132.804688 332.617188 136.65625 329.152344 C 140.503906 325.6875 144.410156 322.285156 148.371094 318.945312 C 152.328125 315.609375 156.34375 312.335938 160.410156 309.128906 C 164.480469 305.921875 168.597656 302.785156 172.769531 299.710938 C 176.9375 296.640625 181.15625 293.636719 185.425781 290.703125 C 189.695312 287.769531 194.011719 284.90625 198.371094 282.113281 C 202.734375 279.324219 207.140625 276.601562 211.59375 273.953125 C 216.042969 271.304688 220.539062 268.730469 225.074219 266.230469 C 229.609375 263.730469 234.183594 261.304688 238.800781 258.953125 C 243.414062 256.601562 248.066406 254.324219 252.757812 252.125 C 257.445312 249.925781 262.167969 247.804688 266.929688 245.761719 C 271.6875 243.71875 276.480469 241.75 281.300781 239.863281 C 286.125 237.976562 290.976562 236.167969 295.859375 234.441406 C 300.742188 232.710938 305.652344 231.0625 310.589844 229.496094 C 315.527344 227.925781 320.488281 226.441406 325.472656 225.035156 C 330.457031 223.628906 335.464844 222.304688 340.492188 221.0625 C 345.519531 219.820312 350.566406 218.664062 355.632812 217.585938 C 360.699219 216.511719 365.785156 215.515625 370.882812 214.605469 C 375.980469 213.695312 381.09375 212.871094 386.21875 212.128906 C 391.34375 211.382812 396.480469 210.726562 401.628906 210.152344 C 406.777344 209.578125 411.933594 209.085938 417.097656 208.679688 C 422.261719 208.273438 427.429688 207.953125 432.601562 207.71875 C 437.777344 207.480469 442.953125 207.328125 448.132812 207.261719 C 458.917969 207.269531 469.691406 207.660156 480.449219 208.4375 C 491.207031 209.210938 501.921875 210.363281 512.597656 211.902344 C 523.273438 213.4375 533.882812 215.351562 544.421875 217.640625 C 554.960938 219.929688 565.40625 222.589844 575.757812 225.625 C 586.109375 228.65625 596.335938 232.054688 606.445312 235.8125 C 616.554688 239.574219 626.519531 243.6875 636.335938 248.15625 C 646.152344 252.621094 655.796875 257.433594 665.273438 262.585938 C 674.746094 267.742188 684.027344 273.222656 693.113281 279.039062 Z M 565.019531 357.011719 " fill-opacity="1" fill-rule="nonzero"/></svg>