<svg xmlns="http://www.w3.org/2000/svg" xmlns:xlink="http://www.w3.org/1999/xlink" width="1200" zoomAndPan="magnify" viewBox="0 0 900 899.99999" height="1200" preserveAspectRatio="xMidYMid meet" version="1.0"><defs><clipPath id="ea62999062"><path d="M 11.226562 5.671875 L 888.726562 5.671875 L 888.726562 894.421875 L 11.226562 894.421875 Z M 11.226562 5.671875 " clip-rule="nonzero"/></clipPath></defs><path fill="#004aad" d="M 179.0625 464.375 L 179.0625 608.46875 C 179.0625 619.488281 187.28125 628.460938 197.375 628.460938 L 258.902344 628.460938 C 269.007812 628.460938 277.214844 619.492188 277.214844 608.46875 L 277.214844 605.65625 C 277.214844 599.242188 281.683594 594.011719 287.179688 594.011719 L 612.644531 594.011719 C 618.140625 594.011719 622.605469 599.230469 622.605469 605.65625 L 622.605469 608.46875 C 622.605469 619.488281 630.828125 628.460938 640.917969 628.460938 L 702.449219 628.460938 C 712.554688 628.460938 720.761719 619.492188 720.761719 608.46875 L 720.761719 464.375 C 720.761719 448.59375 715.558594 433.4375 706.113281 421.679688 L 690.753906 402.578125 C 688.996094 400.390625 684.761719 397.207031 677.417969 391.773438 C 673.753906 389.0625 668.445312 385.132812 664.03125 381.53125 L 665.097656 379.480469 L 665.074219 379.378906 C 665.722656 379.480469 666.382812 379.53125 667.058594 379.53125 L 682.113281 379.53125 C 685.714844 379.53125 689.125 378.042969 691.707031 375.34375 C 694.570312 372.355469 696.097656 368.167969 695.90625 363.855469 C 695.652344 358.316406 695.347656 353.8125 694.980469 350.480469 C 694.457031 345.695312 693.859375 340.273438 689.175781 340.273438 C 687.316406 340.222656 666.167969 337.980469 647.308594 335.90625 C 647.195312 335.90625 647.09375 335.882812 646.976562 335.855469 L 641.847656 334.902344 L 570.941406 252.847656 C 567.503906 248.863281 562.644531 246.574219 557.617188 246.574219 L 342.167969 246.574219 C 337.128906 246.574219 332.269531 248.863281 328.84375 252.847656 L 257.9375 334.902344 L 252.808594 335.855469 C 252.691406 335.882812 252.589844 335.894531 252.476562 335.90625 C 233.617188 337.96875 212.464844 340.222656 210.609375 340.273438 C 205.925781 340.273438 205.328125 345.695312 204.804688 350.480469 C 204.4375 353.8125 204.117188 358.316406 203.875 363.855469 C 203.6875 368.15625 205.214844 372.34375 208.078125 375.34375 C 210.660156 378.042969 214.070312 379.53125 217.683594 379.53125 L 232.738281 379.53125 C 233.402344 379.53125 234.0625 379.480469 234.710938 379.378906 L 234.6875 379.480469 L 235.753906 381.53125 C 231.339844 385.132812 226.03125 389.0625 222.367188 391.773438 C 215.023438 397.222656 210.785156 400.402344 209.03125 402.578125 L 193.671875 421.679688 C 184.226562 433.4375 179.023438 448.59375 179.023438 464.375 Z M 618.472656 449.96875 C 618.472656 439.574219 640.792969 427.929688 670.648438 427.929688 C 683.460938 427.929688 691.3125 429.25 694.023438 431.859375 C 695.894531 433.667969 695.984375 437.601562 695.984375 444.394531 L 695.984375 445.847656 C 695.984375 452.769531 695.984375 459.933594 693.042969 464.539062 C 691.863281 466.386719 688.261719 472.011719 670.648438 472.011719 C 638.425781 472.011719 618.472656 460.570312 618.472656 449.96875 Z M 297.742188 549.867188 C 297.742188 542.613281 303.648438 536.722656 310.886719 536.722656 L 588.972656 536.722656 C 596.226562 536.722656 602.117188 542.625 602.117188 549.867188 L 602.117188 557.605469 C 602.117188 564.859375 596.226562 570.75 588.972656 570.75 L 310.886719 570.75 C 303.632812 570.75 297.742188 564.859375 297.742188 557.605469 Z M 277.242188 352.640625 L 336.761719 270.039062 L 563.089844 270.039062 L 622.621094 352.640625 Z M 203.875 445.847656 L 203.875 444.394531 C 203.875 437.601562 203.964844 433.667969 205.835938 431.859375 C 208.535156 429.25 216.398438 427.929688 229.203125 427.929688 C 259.070312 427.929688 281.378906 439.574219 281.378906 449.96875 C 281.378906 460.367188 261.4375 472.011719 229.203125 472.011719 C 211.589844 472.011719 208 466.386719 206.816406 464.539062 C 203.863281 459.933594 203.875 452.769531 203.875 445.847656 Z M 203.875 445.847656 " fill-opacity="1" fill-rule="nonzero"/><g clip-path="url(#ea62999062)"><path fill="#cc1410" d="M 449.929688 5.609375 C 390.71875 5.609375 333.261719 17.394531 279.148438 40.65625 C 226.960938 63.078125 180.105469 95.171875 139.902344 136.023438 C 99.742188 176.824219 68.21875 224.328125 46.203125 277.214844 C 23.410156 331.949219 11.855469 390.054688 11.855469 449.929688 C 11.855469 509.792969 23.410156 567.914062 46.203125 622.644531 C 68.21875 675.535156 99.753906 723.039062 139.902344 763.839844 C 180.117188 804.6875 226.960938 836.769531 279.148438 859.207031 C 333.261719 882.457031 390.71875 894.253906 449.945312 894.253906 C 509.167969 894.253906 566.613281 882.46875 620.738281 859.207031 C 672.925781 836.785156 719.78125 804.6875 759.984375 763.839844 C 800.144531 723.039062 831.667969 675.535156 853.683594 622.644531 C 876.476562 567.914062 888.03125 509.792969 888.03125 449.929688 C 888.03125 390.070312 876.476562 331.949219 853.683594 277.214844 C 831.667969 224.328125 800.132812 176.824219 759.984375 136.023438 C 719.769531 95.171875 672.925781 63.089844 620.738281 40.65625 C 566.625 17.40625 509.167969 5.609375 449.945312 5.609375 Z M 243.085938 728.066406 L 723.535156 239.941406 C 766.929688 298.417969 792.699219 371.171875 792.699219 449.945312 C 792.699219 642.382812 638.933594 798.960938 449.917969 798.960938 C 372.289062 798.960938 300.605469 772.542969 243.074219 728.078125 Z M 449.929688 100.914062 C 527.582031 100.914062 599.292969 127.34375 656.839844 171.832031 L 176.363281 659.984375 C 132.941406 601.496094 107.160156 528.71875 107.160156 449.917969 C 107.160156 257.480469 260.925781 100.898438 449.941406 100.898438 Z M 449.929688 100.914062 " fill-opacity="1" fill-rule="nonzero"/></g></svg>