<svg xmlns="http://www.w3.org/2000/svg" xmlns:xlink="http://www.w3.org/1999/xlink" width="1200" zoomAndPan="magnify" viewBox="0 0 900 899.99999" height="1200" preserveAspectRatio="xMidYMid meet" version="1.0"><path fill="#004aad" d="M 99.652344 0 L 800.347656 0 C 801.976562 0 803.605469 0.0390625 805.234375 0.121094 C 806.863281 0.199219 808.492188 0.320312 810.113281 0.480469 C 811.738281 0.640625 813.355469 0.839844 814.96875 1.078125 C 816.582031 1.316406 818.1875 1.597656 819.789062 1.914062 C 821.386719 2.234375 822.976562 2.589844 824.558594 2.988281 C 826.140625 3.382812 827.714844 3.816406 829.273438 4.292969 C 830.835938 4.765625 832.382812 5.277344 833.917969 5.824219 C 835.453125 6.375 836.976562 6.960938 838.480469 7.585938 C 839.988281 8.210938 841.480469 8.871094 842.953125 9.566406 C 844.429688 10.265625 845.882812 11 847.324219 11.765625 C 848.761719 12.535156 850.179688 13.339844 851.578125 14.179688 C 852.976562 15.015625 854.355469 15.886719 855.710938 16.792969 C 857.066406 17.699219 858.398438 18.640625 859.710938 19.609375 C 861.019531 20.582031 862.304688 21.585938 863.566406 22.621094 C 864.828125 23.65625 866.0625 24.71875 867.269531 25.816406 C 868.476562 26.910156 869.660156 28.035156 870.8125 29.1875 C 871.964844 30.339844 873.089844 31.523438 874.183594 32.730469 C 875.28125 33.9375 876.34375 35.171875 877.378906 36.433594 C 878.414062 37.695312 879.417969 38.980469 880.386719 40.289062 C 881.359375 41.601562 882.300781 42.933594 883.207031 44.289062 C 884.109375 45.644531 884.984375 47.023438 885.820312 48.421875 C 886.660156 49.820312 887.464844 51.238281 888.234375 52.675781 C 889 54.117188 889.734375 55.570312 890.433594 57.046875 C 891.128906 58.519531 891.789062 60.011719 892.414062 61.519531 C 893.039062 63.023438 893.625 64.546875 894.175781 66.082031 C 894.722656 67.617188 895.234375 69.164062 895.707031 70.726562 C 896.183594 72.285156 896.617188 73.859375 897.011719 75.441406 C 897.410156 77.023438 897.765625 78.613281 898.085938 80.210938 C 898.402344 81.8125 898.683594 83.417969 898.921875 85.03125 C 899.160156 86.644531 899.359375 88.261719 899.519531 89.886719 C 899.679688 91.507812 899.800781 93.136719 899.878906 94.765625 C 899.960938 96.394531 900 98.023438 900 99.652344 L 900 800.347656 C 900 801.976562 899.960938 803.605469 899.878906 805.234375 C 899.800781 806.863281 899.679688 808.492188 899.519531 810.113281 C 899.359375 811.738281 899.160156 813.355469 898.921875 814.96875 C 898.683594 816.582031 898.402344 818.1875 898.085938 819.789062 C 897.765625 821.386719 897.410156 822.976562 897.011719 824.558594 C 896.617188 826.140625 896.183594 827.714844 895.707031 829.273438 C 895.234375 830.835938 894.722656 832.382812 894.175781 833.917969 C 893.625 835.453125 893.039062 836.976562 892.414062 838.480469 C 891.789062 839.988281 891.128906 841.480469 890.433594 842.953125 C 889.734375 844.429688 889 845.882812 888.234375 847.324219 C 887.464844 848.761719 886.660156 850.179688 885.820312 851.578125 C 884.984375 852.976562 884.109375 854.355469 883.207031 855.710938 C 882.300781 857.066406 881.359375 858.398438 880.390625 859.710938 C 879.417969 861.019531 878.414062 862.304688 877.378906 863.566406 C 876.34375 864.828125 875.28125 866.0625 874.183594 867.269531 C 873.089844 868.476562 871.964844 869.660156 870.8125 870.8125 C 869.660156 871.964844 868.476562 873.089844 867.269531 874.183594 C 866.0625 875.28125 864.828125 876.34375 863.566406 877.378906 C 862.304688 878.414062 861.019531 879.417969 859.710938 880.390625 C 858.398438 881.359375 857.066406 882.300781 855.710938 883.207031 C 854.355469 884.109375 852.976562 884.984375 851.578125 885.820312 C 850.179688 886.660156 848.761719 887.464844 847.324219 888.234375 C 845.882812 889 844.429688 889.734375 842.953125 890.433594 C 841.480469 891.128906 839.988281 891.789062 838.480469 892.414062 C 836.976562 893.039062 835.453125 893.625 833.917969 894.175781 C 832.382812 894.722656 830.835938 895.234375 829.273438 895.707031 C 827.714844 896.183594 826.140625 896.617188 824.558594 897.011719 C 822.976562 897.410156 821.386719 897.765625 819.789062 898.085938 C 818.1875 898.402344 816.582031 898.683594 814.96875 898.921875 C 813.355469 899.160156 811.738281 899.359375 810.113281 899.519531 C 808.492188 899.679688 806.863281 899.800781 805.234375 899.878906 C 803.605469 899.960938 801.976562 900 800.347656 900 L 99.652344 900 C 98.023438 900 96.394531 899.960938 94.765625 899.878906 C 93.136719 899.800781 91.507812 899.679688 89.886719 899.519531 C 88.261719 899.359375 86.644531 899.160156 85.03125 898.921875 C 83.417969 898.683594 81.8125 898.402344 80.210938 898.085938 C 78.613281 897.765625 77.023438 897.410156 75.441406 897.011719 C 73.859375 896.617188 72.285156 896.183594 70.726562 895.707031 C 69.164062 895.234375 67.617188 894.722656 66.082031 894.175781 C 64.546875 893.625 63.023438 893.039062 61.519531 892.414062 C 60.011719 891.789062 58.519531 891.128906 57.046875 890.433594 C 55.570312 889.734375 54.117188 889 52.675781 888.234375 C 51.238281 887.464844 49.820312 886.660156 48.421875 885.820312 C 47.023438 884.984375 45.644531 884.109375 44.289062 883.207031 C 42.933594 882.300781 41.601562 881.359375 40.289062 880.390625 C 38.980469 879.417969 37.695312 878.414062 36.433594 877.378906 C 35.171875 876.34375 33.9375 875.28125 32.730469 874.183594 C 31.523438 873.089844 30.339844 871.964844 29.1875 870.8125 C 28.035156 869.660156 26.910156 868.476562 25.816406 867.269531 C 24.71875 866.0625 23.65625 864.828125 22.621094 863.566406 C 21.585938 862.304688 20.582031 861.019531 19.609375 859.710938 C 18.640625 858.398438 17.699219 857.066406 16.792969 855.710938 C 15.886719 854.355469 15.015625 852.976562 14.179688 851.578125 C 13.339844 850.179688 12.535156 848.761719 11.765625 847.324219 C 11 845.882812 10.265625 844.429688 9.566406 842.953125 C 8.871094 841.480469 8.210938 839.988281 7.585938 838.480469 C 6.960938 836.976562 6.375 835.453125 5.824219 833.917969 C 5.277344 832.382812 4.765625 830.835938 4.292969 829.273438 C 3.816406 827.714844 3.382812 826.140625 2.988281 824.558594 C 2.589844 822.976562 2.234375 821.386719 1.914062 819.789062 C 1.597656 818.1875 1.316406 816.582031 1.078125 814.96875 C 0.839844 813.355469 0.640625 811.738281 0.480469 810.113281 C 0.320312 808.492188 0.199219 806.863281 0.121094 805.234375 C 0.0390625 803.605469 0 801.976562 0 800.347656 L 0 99.652344 C 0 98.023438 0.0390625 96.394531 0.121094 94.765625 C 0.199219 93.136719 0.320312 91.507812 0.480469 89.886719 C 0.640625 88.261719 0.839844 86.644531 1.078125 85.03125 C 1.316406 83.417969 1.597656 81.8125 1.914062 80.210938 C 2.234375 78.613281 2.589844 77.023438 2.988281 75.441406 C 3.382812 73.859375 3.816406 72.285156 4.292969 70.726562 C 4.765625 69.164062 5.277344 67.617188 5.824219 66.082031 C 6.375 64.546875 6.960938 63.023438 7.585938 61.519531 C 8.210938 60.011719 8.871094 58.519531 9.566406 57.046875 C 10.265625 55.570312 11 54.117188 11.765625 52.675781 C 12.535156 51.238281 13.339844 49.820312 14.179688 48.421875 C 15.015625 47.023438 15.886719 45.644531 16.792969 44.289062 C 17.699219 42.933594 18.640625 41.601562 19.609375 40.289062 C 20.582031 38.980469 21.585938 37.695312 22.621094 36.433594 C 23.65625 35.171875 24.71875 33.9375 25.816406 32.730469 C 26.910156 31.523438 28.035156 30.339844 29.1875 29.1875 C 30.339844 28.035156 31.523438 26.910156 32.730469 25.816406 C 33.9375 24.71875 35.171875 23.65625 36.433594 22.621094 C 37.695312 21.585938 38.980469 20.582031 40.289062 19.609375 C 41.601562 18.640625 42.933594 17.699219 44.289062 16.792969 C 45.644531 15.886719 47.023438 15.015625 48.421875 14.179688 C 49.820312 13.339844 51.238281 12.535156 52.675781 11.765625 C 54.117188 11 55.570312 10.265625 57.046875 9.566406 C 58.519531 8.871094 60.011719 8.210938 61.519531 7.585938 C 63.023438 6.960938 64.546875 6.375 66.082031 5.824219 C 67.617188 5.277344 69.164062 4.765625 70.726562 4.292969 C 72.285156 3.816406 73.859375 3.382812 75.441406 2.988281 C 77.023438 2.589844 78.613281 2.234375 80.210938 1.914062 C 81.8125 1.597656 83.417969 1.316406 85.03125 1.078125 C 86.644531 0.839844 88.261719 0.640625 89.886719 0.480469 C 91.507812 0.320312 93.136719 0.199219 94.765625 0.121094 C 96.394531 0.0390625 98.023438 0 99.652344 0 " fill-opacity="1" fill-rule="nonzero"/><path fill="#ffffff" d="M 165.382812 80.945312 L 481.296875 80.945312 C 575.226562 80.945312 647.242188 101.875 697.34375 143.730469 C 747.773438 185.257812 772.988281 244.585938 772.988281 321.707031 C 772.988281 399.160156 747.773438 458.816406 697.34375 500.671875 C 647.246094 542.199219 575.234375 562.964844 481.296875 562.964844 L 355.726562 562.964844 L 355.726562 819.058594 L 165.390625 819.058594 L 165.390625 80.917969 M 355.726562 218.847656 L 355.726562 425.003906 L 461.03125 425.003906 C 497.945312 425.003906 526.453125 416.105469 546.558594 398.308594 C 566.664062 380.179688 576.71875 354.636719 576.71875 321.679688 C 576.71875 288.726562 566.664062 263.34375 546.558594 245.546875 C 526.457031 227.75 497.945312 218.851562 461.03125 218.851562 L 355.726562 218.851562 " fill-opacity="1" fill-rule="nonzero"/></svg>