<svg xmlns="http://www.w3.org/2000/svg" xmlns:xlink="http://www.w3.org/1999/xlink" width="1200" zoomAndPan="magnify" viewBox="0 0 900 899.99999" height="1200" preserveAspectRatio="xMidYMid meet" version="1.0"><defs><clipPath id="3e72e61b76"><path d="M 0 17.183594 L 900 17.183594 L 900 882.683594 L 0 882.683594 Z M 0 17.183594 " clip-rule="nonzero"/></clipPath></defs><path fill="#f4e042" d="M 17.09375 234.128906 L 804.59375 234.128906 L 804.59375 796.046875 L 17.09375 796.046875 Z M 17.09375 234.128906 " fill-opacity="1" fill-rule="evenodd"/><path fill="#77c655" d="M 803.785156 234.128906 L 17.09375 234.128906 L 17.09375 112.175781 L 803.804688 112.175781 L 803.804688 234.128906 Z M 705.820312 513.152344 C 610.960938 513.152344 534.066406 591.734375 534.066406 688.683594 C 534.066406 785.636719 610.960938 864.214844 705.820312 864.214844 C 800.679688 864.214844 877.574219 785.636719 877.574219 688.683594 C 877.574219 591.734375 800.679688 513.152344 705.820312 513.152344 Z M 705.820312 513.152344 " fill-opacity="1" fill-rule="evenodd"/><path fill="#bdb23c" d="M 107.929688 31.257812 L 176.078125 31.257812 L 176.078125 161.976562 L 107.929688 161.976562 Z M 645.429688 36.539062 L 645.429688 167.261719 L 713.578125 167.261719 L 713.578125 36.539062 Z M 645.429688 36.539062 " fill-opacity="1" fill-rule="evenodd"/><path fill="#ffffff" d="M 703.664062 75.011719 L 649.566406 75.011719 L 649.566406 41.847656 L 703.664062 41.847656 Z M 721.269531 150.421875 C 721.179688 151.792969 721 153.121094 720.726562 154.421875 L 803.785156 154.421875 L 803.785156 121.257812 L 713.824219 121.257812 C 716.613281 131.0625 721.917969 139.675781 721.269531 150.421875 Z M 649.769531 154.421875 C 646.914062 145.675781 645.765625 136.03125 645.722656 127.441406 C 645.722656 125.308594 646.035156 123.214844 646.667969 121.257812 L 176.527344 121.257812 C 177.339844 123.507812 177.832031 125.980469 178.125 128.679688 C 179.046875 137.289062 178.753906 146.554688 174.753906 154.421875 Z M 113.707031 128.679688 C 113.730469 126.027344 114.25 123.554688 115.125 121.257812 L 23.480469 121.257812 L 23.480469 154.421875 L 115.980469 154.421875 C 115.507812 153.34375 115.082031 152.242188 114.71875 151.097656 C 112.496094 143.675781 113.640625 136.210938 113.707031 128.679688 Z M 877.574219 688.683594 C 877.574219 645.851562 862.554688 606.597656 837.621094 576.128906 C 833.84375 572.734375 829.910156 569.5 825.863281 566.417969 C 793.394531 541.683594 752.902344 526.980469 709.015625 526.980469 C 655.726562 526.980469 607.476562 548.589844 572.539062 583.503906 C 566.984375 589.082031 561.746094 594.972656 556.886719 601.179688 C 542.363281 626.945312 534.066406 656.824219 534.066406 688.683594 C 534.066406 719.488281 541.847656 748.425781 555.472656 773.585938 C 549.648438 756.878906 546.476562 738.824219 546.476562 719.984375 C 546.476562 675.105469 564.667969 634.453125 594.078125 605.046875 C 623.484375 575.636719 664.136719 557.445312 709.015625 557.445312 C 746.046875 557.445312 780.152344 569.789062 807.425781 590.566406 C 813.25 595.015625 818.78125 599.851562 823.972656 605.023438 C 843.625 624.671875 858.285156 649.292969 865.773438 676.835938 C 869.550781 690.574219 871.550781 705.03125 871.550781 719.960938 C 871.550781 726.34375 871.167969 732.640625 870.472656 738.824219 C 875.078125 722.949219 877.574219 706.109375 877.574219 688.683594 Z M 113.125 75.011719 L 173.898438 75.011719 L 173.898438 41.847656 L 113.125 41.847656 Z M 113.125 75.011719 " fill-opacity="1" fill-rule="nonzero"/><g clip-path="url(#3e72e61b76)"><path fill="#36383e" d="M 792.070312 624.179688 C 797.714844 629.800781 797.734375 638.929688 792.136719 644.550781 L 679 757.824219 C 673.378906 763.464844 664.25 763.488281 658.628906 757.890625 C 658.042969 757.304688 657.503906 756.675781 657.054688 756.023438 L 624.878906 711.011719 C 620.269531 704.535156 621.777344 695.519531 628.253906 690.910156 C 634.726562 686.300781 643.742188 687.808594 648.351562 694.285156 L 670.613281 725.445312 L 771.699219 624.246094 C 777.296875 618.601562 786.425781 618.582031 792.070312 624.179688 Z M 899.675781 691.046875 C 899.675781 743.90625 878.363281 791.820312 843.894531 826.535156 C 809.425781 861.25 761.804688 882.742188 709.238281 882.742188 C 656.671875 882.742188 609.074219 861.25 574.582031 826.535156 C 569.34375 821.25 564.441406 815.628906 559.832031 809.78125 L 14.78125 809.78125 C 6.796875 809.78125 0.324219 803.308594 0.324219 795.324219 L 0.324219 111.589844 C 0.324219 103.609375 6.796875 97.132812 14.78125 97.132812 L 92.910156 97.132812 L 92.910156 31.640625 C 92.910156 23.65625 99.363281 17.183594 107.347656 17.183594 L 179.382812 17.183594 C 187.367188 17.183594 193.839844 23.65625 193.839844 31.640625 L 193.839844 97.132812 L 627.351562 97.132812 L 627.351562 31.640625 C 627.351562 23.65625 633.828125 17.183594 641.808594 17.183594 L 713.871094 17.183594 C 721.851562 17.183594 728.328125 23.65625 728.328125 31.640625 L 728.328125 97.132812 L 806.460938 97.132812 C 814.441406 97.132812 820.917969 103.609375 820.917969 111.589844 L 820.917969 234.894531 C 820.9375 235.253906 820.960938 235.589844 820.960938 235.949219 C 820.960938 236.308594 820.9375 236.648438 820.917969 237.007812 L 820.917969 535.863281 C 829.078125 541.820312 836.789062 548.386719 843.894531 555.558594 C 878.363281 590.273438 899.675781 638.1875 899.675781 691.046875 Z M 656.289062 46.097656 L 656.289062 153.253906 L 699.4375 153.253906 L 699.4375 46.097656 Z M 121.804688 153.253906 L 164.949219 153.253906 L 164.949219 46.097656 L 121.804688 46.097656 Z M 29.238281 126.046875 L 29.238281 221.492188 L 792.003906 221.492188 L 792.003906 126.046875 L 728.351562 126.046875 L 728.351562 167.710938 C 728.351562 175.691406 721.875 182.167969 713.894531 182.167969 L 641.832031 182.167969 C 633.851562 182.167969 627.375 175.691406 627.375 167.710938 L 627.375 126.046875 L 193.863281 126.046875 L 193.863281 167.710938 C 193.863281 175.691406 187.386719 182.167969 179.40625 182.167969 L 107.347656 182.167969 C 99.363281 182.167969 92.890625 175.691406 92.890625 167.710938 L 92.890625 126.046875 Z M 541.058594 780.867188 C 526.894531 754.066406 518.824219 723.488281 518.824219 691.046875 C 518.824219 671.460938 521.769531 652.554688 527.210938 634.722656 C 526.691406 634.792969 526.175781 634.8125 525.636719 634.8125 L 445.054688 634.8125 C 437.070312 634.8125 430.597656 628.339844 430.597656 620.355469 C 430.597656 612.375 437.070312 605.898438 445.054688 605.898438 L 525.636719 605.898438 C 529.90625 605.898438 533.730469 607.765625 536.382812 610.710938 C 545.871094 590.09375 558.84375 571.433594 574.605469 555.535156 C 609.074219 520.820312 656.695312 499.324219 709.261719 499.324219 C 738.917969 499.324219 766.976562 506.160156 792.023438 518.371094 L 792.023438 250.40625 L 29.238281 250.40625 L 29.238281 780.867188 Z M 870.761719 691.046875 C 870.761719 646.03125 852.6875 605.316406 823.457031 575.882812 C 815.96875 568.351562 807.742188 561.5625 798.925781 555.625 C 798.679688 555.46875 798.433594 555.3125 798.183594 555.152344 C 772.6875 538.179688 742.132812 528.285156 709.261719 528.285156 C 664.652344 528.285156 624.25 546.472656 595.042969 575.90625 C 565.816406 605.335938 547.738281 646.054688 547.738281 691.066406 C 547.738281 726.863281 559.183594 759.890625 578.5625 786.738281 C 578.742188 786.984375 578.921875 787.230469 579.078125 787.480469 C 583.9375 794.132812 589.265625 800.40625 595.042969 806.230469 C 624.25 835.640625 664.632812 853.851562 709.261719 853.851562 C 753.871094 853.851562 794.273438 835.660156 823.480469 806.230469 C 852.6875 776.777344 870.761719 736.058594 870.761719 691.046875 Z M 226.734375 330.246094 L 146.152344 330.246094 C 138.171875 330.246094 131.695312 336.722656 131.695312 344.703125 C 131.695312 352.6875 138.171875 359.160156 146.152344 359.160156 L 226.734375 359.160156 C 234.71875 359.160156 241.191406 352.6875 241.191406 344.703125 C 241.191406 336.699219 234.71875 330.246094 226.734375 330.246094 Z M 594.503906 496.988281 L 675.085938 496.988281 C 683.066406 496.988281 689.542969 490.511719 689.542969 482.53125 C 689.542969 474.546875 683.066406 468.074219 675.085938 468.074219 L 594.503906 468.074219 C 586.523438 468.074219 580.046875 474.546875 580.046875 482.53125 C 580.046875 490.511719 586.523438 496.988281 594.503906 496.988281 Z M 315.523438 344.683594 L 292.589844 367.636719 C 286.96875 373.28125 287.015625 382.410156 292.65625 388.007812 C 298.300781 393.628906 307.429688 393.585938 313.027344 387.941406 L 335.871094 365.050781 L 358.714844 387.941406 C 364.335938 393.585938 373.464844 393.605469 379.085938 388.007812 C 384.730469 382.386719 384.75 373.257812 379.152344 367.636719 L 356.21875 344.683594 L 379.152344 321.726562 C 384.773438 316.082031 384.730469 306.953125 379.085938 301.355469 C 373.441406 295.734375 364.3125 295.78125 358.714844 301.421875 L 335.871094 324.3125 L 313.027344 301.421875 C 307.40625 295.78125 298.277344 295.757812 292.65625 301.355469 C 287.015625 306.976562 286.992188 316.105469 292.589844 321.726562 Z M 464.972656 344.683594 L 442.039062 367.636719 C 436.417969 373.28125 436.464844 382.410156 442.109375 388.007812 C 447.75 393.628906 456.878906 393.585938 462.480469 387.941406 L 485.320312 365.050781 L 508.164062 387.941406 C 513.785156 393.585938 522.914062 393.605469 528.535156 388.007812 C 534.179688 382.386719 534.203125 373.257812 528.605469 367.636719 L 505.671875 344.683594 L 528.605469 321.726562 C 534.222656 316.082031 534.179688 306.953125 528.535156 301.355469 C 522.894531 295.734375 513.765625 295.78125 508.164062 301.421875 L 485.320312 324.3125 L 462.480469 301.421875 C 456.859375 295.78125 447.730469 295.757812 442.109375 301.355469 C 436.464844 306.976562 436.441406 316.105469 442.039062 321.726562 Z M 614.425781 344.683594 L 591.492188 367.636719 C 585.871094 373.28125 585.914062 382.410156 591.558594 388.007812 C 597.203125 393.628906 606.332031 393.585938 611.929688 387.941406 L 634.773438 365.050781 L 657.617188 387.941406 C 663.238281 393.585938 672.367188 393.605469 677.988281 388.007812 C 683.628906 382.386719 683.652344 373.257812 678.054688 367.636719 L 655.121094 344.683594 L 678.054688 321.726562 C 683.675781 316.082031 683.628906 306.953125 677.988281 301.355469 C 672.34375 295.734375 663.214844 295.78125 657.617188 301.421875 L 634.773438 324.3125 L 611.929688 301.421875 C 606.308594 295.78125 597.179688 295.757812 591.558594 301.355469 C 585.914062 306.976562 585.890625 316.105469 591.492188 321.726562 Z M 229.65625 439.179688 C 224.015625 433.5625 214.886719 433.605469 209.289062 439.25 L 186.421875 462.136719 L 163.578125 439.25 C 157.957031 433.605469 148.828125 433.582031 143.207031 439.179688 C 137.5625 444.800781 137.542969 453.929688 143.140625 459.550781 L 166.074219 482.507812 L 143.140625 505.464844 C 137.519531 511.109375 137.5625 520.234375 143.207031 525.835938 C 148.851562 531.457031 157.980469 531.410156 163.578125 525.765625 L 186.421875 502.878906 L 209.265625 525.765625 C 214.886719 531.410156 224.015625 531.433594 229.636719 525.835938 C 235.277344 520.214844 235.300781 511.085938 229.703125 505.464844 L 206.769531 482.507812 L 229.703125 459.550781 C 235.324219 453.929688 235.300781 444.800781 229.65625 439.179688 Z M 292.636719 525.855469 C 298.277344 531.476562 307.40625 531.433594 313.003906 525.789062 L 335.847656 502.902344 L 358.691406 525.789062 C 364.3125 531.433594 373.441406 531.457031 379.0625 525.855469 C 384.707031 520.234375 384.730469 511.105469 379.128906 505.488281 L 356.199219 482.53125 L 379.128906 459.574219 C 384.75 453.929688 384.707031 444.800781 379.0625 439.203125 C 373.421875 433.582031 364.292969 433.628906 358.691406 439.269531 L 335.847656 462.160156 L 313.003906 439.269531 C 307.386719 433.628906 298.257812 433.605469 292.636719 439.203125 C 286.992188 444.824219 286.96875 453.953125 292.566406 459.574219 L 315.5 482.53125 L 292.566406 505.488281 C 286.96875 511.105469 287.015625 520.234375 292.636719 525.855469 Z M 528.582031 439.179688 C 522.9375 433.5625 513.808594 433.605469 508.210938 439.25 L 485.367188 462.136719 L 462.523438 439.25 C 456.902344 433.605469 447.773438 433.582031 442.152344 439.179688 C 436.507812 444.800781 436.488281 453.929688 442.085938 459.550781 L 465.019531 482.507812 L 442.085938 505.464844 C 436.464844 511.109375 436.507812 520.234375 442.152344 525.835938 C 447.796875 531.457031 456.925781 531.410156 462.523438 525.765625 L 485.367188 502.878906 L 508.210938 525.765625 C 513.832031 531.410156 522.960938 531.433594 528.582031 525.835938 C 534.222656 520.214844 534.246094 511.085938 528.648438 505.464844 L 505.714844 482.507812 L 528.648438 459.550781 C 534.246094 453.929688 534.222656 444.800781 528.582031 439.179688 Z M 376.164062 605.921875 L 295.582031 605.921875 C 287.597656 605.921875 281.125 612.398438 281.125 620.378906 C 281.125 628.359375 287.597656 634.835938 295.582031 634.835938 L 376.164062 634.835938 C 384.144531 634.835938 390.621094 628.359375 390.621094 620.378906 C 390.621094 612.375 384.144531 605.921875 376.164062 605.921875 Z M 226.710938 605.921875 L 146.128906 605.921875 C 138.148438 605.921875 131.671875 612.398438 131.671875 620.378906 C 131.671875 628.359375 138.148438 634.835938 146.128906 634.835938 L 226.710938 634.835938 C 234.695312 634.835938 241.167969 628.359375 241.167969 620.378906 C 241.167969 612.375 234.695312 605.921875 226.710938 605.921875 Z M 226.710938 605.921875 " fill-opacity="1" fill-rule="nonzero"/></g></svg>