<svg xmlns="http://www.w3.org/2000/svg" xmlns:xlink="http://www.w3.org/1999/xlink" width="1200" zoomAndPan="magnify" viewBox="0 0 900 899.99999" height="1200" preserveAspectRatio="xMidYMid meet" version="1.0"><defs><clipPath id="40357701ea"><path d="M 47 96 L 853.6875 96 L 853.6875 900 L 47 900 Z M 47 96 " clip-rule="nonzero"/></clipPath></defs><g clip-path="url(#40357701ea)"><path fill="#f0a845" d="M 843.453125 814.882812 L 643.304688 614.160156 C 643.402344 614.0625 643.496094 613.96875 643.59375 613.871094 C 672.402344 573.859375 691.453125 528.96875 700.351562 480.4375 C 708.96875 433.535156 707.246094 384.335938 695.375 338.390625 C 693.460938 331.019531 688.292969 325.085938 681.210938 322.214844 C 674.03125 319.34375 666.179688 319.917969 659.480469 324.035156 C 650.386719 329.585938 645.984375 340.210938 648.664062 350.546875 C 660.726562 397.355469 660.535156 446.9375 648.089844 493.839844 C 635.265625 542.175781 609.613281 586.496094 574.003906 621.910156 C 520.59375 675.035156 449.761719 704.324219 374.621094 704.421875 C 374.527344 704.421875 374.335938 704.421875 374.238281 704.421875 C 299.195312 704.421875 228.9375 675.324219 176.386719 622.484375 C 67.457031 513.078125 68.703125 334.660156 179.066406 224.867188 C 223.289062 180.835938 279.285156 153.269531 340.929688 144.941406 C 353.660156 143.21875 362.753906 131.828125 361.601562 118.90625 C 361.027344 112.304688 357.773438 106.367188 352.605469 102.15625 C 347.4375 98.039062 340.929688 96.222656 334.417969 97.179688 C 262.4375 107.039062 197.0625 139.390625 145.277344 190.886719 C 82.679688 253.203125 47.933594 335.902344 47.261719 423.867188 C 46.6875 511.835938 80.285156 594.441406 142.121094 656.5625 C 197.539062 712.269531 271.339844 746.15625 349.925781 751.800781 C 357.871094 752.375 365.816406 752.664062 373.757812 752.664062 C 443.441406 752.664062 511.691406 730.648438 568.355469 689.488281 C 568.453125 689.394531 568.546875 689.296875 568.644531 689.296875 L 768.503906 889.734375 C 774.726562 896.050781 783.148438 899.496094 792.050781 899.59375 C 801.242188 899.6875 809.953125 896.148438 816.460938 889.636719 L 843.261719 862.835938 C 849.675781 856.421875 853.214844 847.902344 853.3125 838.8125 C 853.214844 829.8125 849.769531 821.292969 843.453125 814.882812 Z M 843.453125 814.882812 " fill-opacity="1" fill-rule="nonzero"/></g><path fill="#f0a845" d="M 730.410156 168.96875 L 710.59375 161.597656 C 695.566406 156.046875 681.113281 148.773438 667.617188 140.15625 C 654.3125 131.542969 641.867188 121.585938 630.574219 110.292969 C 619.375 99.09375 609.324219 86.648438 600.710938 73.25 C 592 59.753906 584.820312 45.300781 579.269531 30.273438 L 571.898438 10.457031 C 569.695312 4.425781 563.859375 0.3125 557.253906 0.3125 C 550.746094 0.3125 544.808594 4.425781 542.609375 10.554688 L 535.238281 30.367188 C 529.6875 45.394531 522.410156 59.847656 513.796875 73.34375 C 505.183594 86.648438 495.226562 99.09375 483.933594 110.386719 C 472.734375 121.585938 460.289062 131.636719 446.890625 140.253906 C 433.394531 148.964844 418.9375 156.140625 403.910156 161.695312 L 384.097656 169.0625 C 377.972656 171.363281 373.855469 177.199219 373.855469 183.710938 C 373.855469 190.21875 377.972656 196.152344 384.097656 198.355469 L 403.910156 205.726562 C 418.9375 211.277344 433.394531 218.550781 446.890625 227.164062 C 460.195312 235.78125 472.636719 245.734375 483.933594 257.03125 C 495.132812 268.230469 505.183594 280.671875 513.796875 294.074219 C 522.507812 307.570312 529.6875 322.023438 535.238281 337.050781 L 542.609375 356.867188 C 544.90625 362.992188 550.746094 367.105469 557.253906 367.105469 C 563.761719 367.105469 569.695312 362.992188 571.898438 356.867188 L 579.269531 337.050781 C 584.820312 322.023438 592.09375 307.570312 600.710938 294.074219 C 609.324219 280.769531 619.277344 268.324219 630.574219 257.03125 C 641.773438 245.832031 654.214844 235.78125 667.617188 227.164062 C 681.113281 218.457031 695.566406 211.277344 710.59375 205.726562 L 730.410156 198.355469 C 736.535156 196.058594 740.652344 190.21875 740.652344 183.710938 C 740.652344 177.199219 736.535156 171.265625 730.410156 168.96875 Z M 648.570312 183.710938 C 646.464844 185.050781 644.261719 186.292969 642.15625 187.730469 C 625.980469 198.066406 610.953125 210.222656 597.359375 223.816406 C 583.765625 237.40625 571.609375 252.4375 561.273438 268.613281 C 559.933594 270.71875 558.59375 272.824219 557.253906 275.027344 C 555.914062 272.917969 554.667969 270.71875 553.234375 268.613281 C 542.894531 252.4375 530.738281 237.40625 517.148438 223.816406 C 503.554688 210.222656 488.527344 198.066406 472.351562 187.730469 C 470.246094 186.390625 468.140625 185.050781 465.9375 183.710938 C 468.042969 182.371094 470.246094 181.125 472.351562 179.6875 C 488.527344 169.351562 503.554688 157.195312 517.148438 143.601562 C 530.738281 130.011719 542.894531 114.984375 553.234375 98.804688 C 554.574219 96.699219 555.914062 94.59375 557.253906 92.394531 C 558.59375 94.5 559.835938 96.699219 561.273438 98.804688 C 571.609375 114.984375 583.765625 130.011719 597.359375 143.601562 C 610.953125 157.195312 625.980469 169.351562 642.15625 179.6875 C 644.261719 181.03125 646.367188 182.371094 648.570312 183.710938 Z M 648.570312 183.710938 " fill-opacity="1" fill-rule="nonzero"/></svg>