<svg xmlns="http://www.w3.org/2000/svg" xmlns:xlink="http://www.w3.org/1999/xlink" width="1200" zoomAndPan="magnify" viewBox="0 0 900 899.99999" height="1200" preserveAspectRatio="xMidYMid meet" version="1.0"><path fill="#f0a845" d="M 899.710938 444.574219 C 898.640625 439.828125 858.042969 391.625 851.617188 384.453125 C 746.675781 267.328125 588.808594 166.222656 425.386719 175.851562 C 274.824219 184.726562 99.34375 305.792969 13.589844 426.546875 C 7.957031 434.476562 -2.023438 444.464844 0.359375 454.203125 C 1.871094 460.367188 49.066406 515.457031 56.871094 523.933594 C 146.953125 621.871094 286.667969 715.363281 422.980469 724.121094 C 582.660156 734.390625 737.351562 637.992188 841.996094 525.132812 C 851.535156 514.84375 894.925781 465.875 898.507812 456.597656 C 899.730469 453.445312 900.421875 447.703125 899.710938 444.574219 Z M 437.417969 696.464844 C 278.621094 691.164062 124.136719 572.074219 32.832031 449.386719 C 125.992188 326.84375 279.59375 207.964844 439.820312 203.507812 C 607.679688 198.847656 771.9375 321.453125 867.257812 450.585938 C 768.726562 578.734375 607.238281 702.144531 437.417969 696.464844 Z M 437.417969 696.464844 " fill-opacity="1" fill-rule="nonzero"/><path fill="#f0a845" d="M 435.007812 234.765625 C 268.480469 245.277344 177.453125 442.394531 276.902344 576.835938 C 367.144531 698.839844 550.269531 692.9375 631.59375 564.8125 C 726.011719 416.070312 608.796875 223.804688 435.007812 234.765625 Z M 575.683594 595.46875 C 444.050781 709.675781 243.386719 602.414062 257.660156 431.34375 C 264.949219 343.980469 343.933594 264.824219 431.398438 257.605469 C 616.867188 242.289062 718.074219 471.933594 575.683594 595.46875 Z M 575.683594 595.46875 " fill-opacity="1" fill-rule="nonzero"/><path fill="#f0a845" d="M 505.351562 332.757812 C 485.296875 322.792969 460.925781 318.464844 438.625 320.128906 C 325.476562 328.597656 279.082031 475.191406 365.28125 548.578125 C 469.546875 637.34375 622.277344 524.203125 569.683594 399.484375 C 519.839844 495.855469 405.945312 379.394531 505.351562 332.757812 Z M 505.351562 332.757812 " fill-opacity="1" fill-rule="nonzero"/></svg>