<svg xmlns="http://www.w3.org/2000/svg" xmlns:xlink="http://www.w3.org/1999/xlink" width="1200" zoomAndPan="magnify" viewBox="0 0 900 899.99999" height="1200" preserveAspectRatio="xMidYMid meet" version="1.0"><defs><clipPath id="68a0871382"><path d="M 5.625 17 L 242 17 L 242 254 L 5.625 254 Z M 5.625 17 " clip-rule="nonzero"/></clipPath></defs><path fill="#292e3c" d="M 166.003906 453.582031 L 309.003906 369.300781 L 318.527344 385.539062 L 175.527344 469.824219 Z M 395.21875 355.777344 L 528.34375 385.75 L 524.210938 404.125 L 391.085938 374.15625 Z M 594.90625 369.003906 L 747.078125 236.984375 L 759.398438 251.230469 L 607.234375 383.25 Z M 594.90625 369.003906 " fill-opacity="1" fill-rule="evenodd"/><path fill="#ffc807" d="M 310.519531 881.839844 C 296.425781 881.839844 284.929688 870.34375 284.929688 856.25 L 284.929688 534.613281 C 284.929688 520.519531 296.425781 509.023438 310.519531 509.023438 L 391.46875 509.023438 C 405.5625 509.023438 417.058594 520.519531 417.058594 534.613281 L 417.058594 856.25 C 417.058594 870.34375 405.5625 881.839844 391.46875 881.839844 Z M 310.519531 881.839844 " fill-opacity="1" fill-rule="evenodd"/><path fill="#45dea6" d="M 527.960938 880.226562 C 513.867188 880.226562 502.371094 868.742188 502.371094 854.640625 L 502.371094 583.574219 C 502.371094 569.484375 513.867188 557.988281 527.960938 557.988281 L 608.921875 557.988281 C 623.015625 557.988281 634.511719 569.484375 634.511719 583.574219 L 634.511719 854.648438 C 634.511719 868.742188 623.027344 880.238281 608.921875 880.238281 L 527.960938 880.238281 Z M 527.960938 880.226562 " fill-opacity="1" fill-rule="evenodd"/><path fill="#6ac8eb" d="M 745.402344 881.839844 C 731.308594 881.839844 719.8125 870.34375 719.8125 856.25 L 719.8125 394.933594 C 719.8125 380.839844 731.308594 369.34375 745.402344 369.34375 L 826.367188 369.34375 C 840.457031 369.34375 851.953125 380.839844 851.953125 394.933594 L 851.953125 856.25 C 851.953125 870.34375 840.457031 881.839844 826.367188 881.839844 Z M 745.402344 881.839844 " fill-opacity="1" fill-rule="evenodd"/><path fill="#f14b4e" d="M 199.617188 662.773438 L 199.617188 856.25 C 199.617188 870.34375 188.132812 881.839844 174.039062 881.839844 L 93.074219 881.839844 C 78.984375 881.839844 67.488281 870.34375 67.488281 856.25 L 67.488281 662.773438 C 67.488281 648.679688 78.984375 637.183594 93.074219 637.183594 L 174.039062 637.183594 C 188.132812 637.183594 199.617188 648.679688 199.617188 662.773438 Z M 199.617188 662.773438 " fill-opacity="1" fill-rule="evenodd"/><path fill="#45dea6" d="M 568.429688 358 C 594.074219 358 614.863281 378.789062 614.863281 404.433594 C 614.863281 430.078125 594.074219 450.867188 568.429688 450.867188 C 542.789062 450.867188 522 430.078125 522 404.433594 C 522 378.789062 542.789062 358 568.429688 358 Z M 568.429688 358 " fill-opacity="1" fill-rule="evenodd"/><path fill="#ffc807" d="M 350.988281 309.039062 C 376.632812 309.039062 397.421875 329.828125 397.421875 355.46875 C 397.421875 381.113281 376.632812 401.902344 350.988281 401.902344 C 325.34375 401.902344 304.554688 381.113281 304.554688 355.46875 C 304.554688 329.828125 325.34375 309.039062 350.988281 309.039062 Z M 350.988281 309.039062 " fill-opacity="1" fill-rule="evenodd"/><path fill="#f14b4e" d="M 133.546875 437.199219 C 159.1875 437.199219 179.976562 457.988281 179.976562 483.644531 C 179.976562 509.285156 159.1875 530.074219 133.546875 530.074219 C 107.902344 530.074219 87.113281 509.285156 87.113281 483.644531 C 87.113281 458 107.902344 437.199219 133.546875 437.199219 Z M 133.546875 437.199219 " fill-opacity="1" fill-rule="evenodd"/><path fill="#6ac8eb" d="M 785.882812 169.359375 C 811.527344 169.359375 832.316406 190.148438 832.316406 215.789062 C 832.316406 241.433594 811.527344 262.222656 785.882812 262.222656 C 760.242188 262.222656 739.453125 241.433594 739.453125 215.789062 C 739.453125 190.148438 760.230469 169.359375 785.882812 169.359375 Z M 785.882812 169.359375 " fill-opacity="1" fill-rule="evenodd"/><path fill="#a55724" d="M 46.597656 897.847656 L 872.839844 897.847656 C 884.28125 897.847656 893.640625 888.488281 893.640625 877.050781 C 893.640625 865.609375 884.28125 856.261719 872.839844 856.261719 L 46.597656 856.261719 C 35.160156 856.261719 25.800781 865.621094 25.800781 877.050781 C 25.800781 888.488281 35.160156 897.847656 46.597656 897.847656 Z M 46.597656 897.847656 " fill-opacity="1" fill-rule="evenodd"/><g clip-path="url(#68a0871382)"><path fill="#6ac8eb" d="M 241.730469 141.546875 C 238.628906 204.109375 186.914062 253.882812 123.574219 253.882812 C 58.238281 253.882812 5.261719 200.910156 5.261719 135.574219 C 5.261719 72.242188 55.039062 20.527344 117.601562 17.417969 C 119.210938 17.339844 120.636719 17.867188 121.808594 18.972656 C 122.980469 20.078125 123.574219 21.480469 123.574219 23.09375 L 123.574219 129.875 C 123.574219 133.007812 126.125 135.5625 129.261719 135.5625 L 236.054688 135.5625 C 237.664062 135.5625 239.054688 136.164062 240.175781 137.328125 C 241.28125 138.511719 241.808594 139.933594 241.730469 141.546875 Z M 241.730469 141.546875 " fill-opacity="1" fill-rule="evenodd"/></g><path fill="#f14b4e" d="M 256.753906 95.75 C 243.40625 51.039062 208.140625 15.773438 163.441406 2.402344 C 161.664062 1.867188 159.902344 2.183594 158.421875 3.289062 C 156.933594 4.398438 156.132812 5.996094 156.132812 7.851562 L 156.132812 97.371094 C 156.132812 100.503906 158.683594 103.058594 161.820312 103.058594 L 251.308594 103.058594 C 253.171875 103.058594 254.761719 102.257812 255.867188 100.769531 C 256.972656 99.289062 257.292969 97.523438 256.753906 95.75 Z M 256.753906 95.75 " fill-opacity="1" fill-rule="evenodd"/><path fill="#292e3c" d="M 309.167969 101.175781 C 303.953125 101.175781 299.722656 96.945312 299.722656 91.726562 C 299.722656 86.511719 303.953125 82.28125 309.167969 82.28125 L 596.976562 82.28125 C 602.195312 82.28125 606.425781 86.511719 606.425781 91.726562 C 606.425781 96.945312 602.195312 101.175781 596.976562 101.175781 Z M 309.167969 101.175781 " fill-opacity="1" fill-rule="evenodd"/><path fill="#292e3c" d="M 309.167969 172.023438 C 303.953125 172.023438 299.722656 167.792969 299.722656 162.574219 C 299.722656 157.359375 303.953125 153.128906 309.167969 153.128906 L 515.796875 153.128906 C 521.011719 153.128906 525.242188 157.359375 525.242188 162.574219 C 525.242188 167.792969 521.011719 172.023438 515.796875 172.023438 Z M 309.167969 172.023438 " fill-opacity="1" fill-rule="evenodd"/><path fill="#cc2a2e" d="M 165.664062 662.773438 L 165.664062 856.25 L 199.605469 856.25 L 199.605469 662.773438 C 199.605469 648.679688 188.121094 637.183594 174.027344 637.183594 L 140.089844 637.183594 C 154.179688 637.183594 165.664062 648.679688 165.664062 662.773438 Z M 165.664062 662.773438 " fill-opacity="1" fill-rule="evenodd"/><path fill="#feb602" d="M 383.117188 534.613281 L 383.117188 856.25 L 417.070312 856.25 L 417.070312 534.613281 C 417.070312 520.519531 405.574219 509.023438 391.480469 509.023438 L 357.542969 509.023438 C 371.625 509.023438 383.117188 520.519531 383.117188 534.613281 Z M 383.117188 534.613281 " fill-opacity="1" fill-rule="evenodd"/><path fill="#1bbd86" d="M 600.5625 583.574219 L 600.5625 854.648438 C 600.5625 855.1875 600.539062 855.722656 600.507812 856.25 L 634.445312 856.25 C 634.480469 855.722656 634.488281 855.1875 634.488281 854.648438 L 634.488281 583.574219 C 634.488281 569.484375 623.003906 557.988281 608.902344 557.988281 L 574.949219 557.988281 C 589.066406 557.988281 600.5625 569.472656 600.5625 583.574219 Z M 600.5625 583.574219 " fill-opacity="1" fill-rule="evenodd"/><path fill="#20a5d5" d="M 818.003906 394.933594 L 818.003906 856.25 L 851.953125 856.25 L 851.953125 394.933594 C 851.953125 380.839844 840.457031 369.34375 826.367188 369.34375 L 792.425781 369.34375 C 806.507812 369.34375 818.003906 380.828125 818.003906 394.933594 Z M 818.003906 394.933594 " fill-opacity="1" fill-rule="evenodd"/><path fill="#cc2a2e" d="M 177.511719 468.652344 C 175.441406 462.589844 172.164062 457.089844 167.945312 452.445312 C 159.453125 443.085938 147.1875 437.210938 133.546875 437.210938 C 130.640625 437.210938 127.804688 437.472656 125.0625 437.988281 C 146.652344 441.976562 163.015625 460.902344 163.015625 483.652344 C 163.015625 506.40625 146.652344 525.320312 125.0625 529.308594 C 127.8125 529.824219 130.652344 530.085938 133.546875 530.085938 C 159.1875 530.085938 179.976562 509.296875 179.976562 483.652344 C 179.976562 478.394531 179.113281 473.351562 177.511719 468.652344 Z M 177.511719 468.652344 " fill-opacity="1" fill-rule="evenodd"/><path fill="#1bbd86" d="M 559.949219 358.769531 C 581.539062 362.757812 597.898438 381.683594 597.898438 404.433594 C 597.898438 427.183594 581.539062 446.109375 559.949219 450.097656 C 562.699219 450.601562 565.539062 450.875 568.429688 450.875 C 594.074219 450.875 614.863281 430.089844 614.863281 404.445312 C 614.863281 396.203125 612.714844 388.46875 608.957031 381.761719 C 605.84375 376.214844 601.636719 371.382812 596.617188 367.535156 C 588.804688 361.5625 579.039062 358.011719 568.441406 358.011719 C 565.539062 358 562.699219 358.265625 559.949219 358.769531 Z M 559.949219 358.769531 " fill-opacity="1" fill-rule="evenodd"/><path fill="#feb602" d="M 393.289062 374.648438 C 395.84375 369.039062 397.300781 362.824219 397.410156 356.269531 C 397.421875 356.007812 397.421875 355.734375 397.421875 355.46875 C 397.421875 329.828125 376.632812 309.039062 350.988281 309.039062 C 348.09375 309.039062 345.257812 309.300781 342.507812 309.816406 C 364.09375 313.804688 380.457031 332.730469 380.457031 355.46875 C 380.457031 378.21875 364.105469 397.144531 342.507812 401.136719 C 345.257812 401.640625 348.09375 401.914062 350.988281 401.914062 C 369.804688 401.914062 386 390.722656 393.289062 374.648438 Z M 393.289062 374.648438 " fill-opacity="1" fill-rule="evenodd"/><path fill="#20a5d5" d="M 777.390625 170.125 C 798.980469 174.113281 815.339844 193.039062 815.339844 215.789062 C 815.339844 238.542969 798.992188 257.464844 777.390625 261.457031 C 780.140625 261.960938 782.980469 262.222656 785.882812 262.222656 C 811.527344 262.222656 832.316406 241.433594 832.316406 215.789062 C 832.316406 190.148438 811.527344 169.359375 785.882812 169.359375 C 782.980469 169.359375 780.140625 169.621094 777.390625 170.125 Z M 777.390625 170.125 " fill-opacity="1" fill-rule="evenodd"/><path fill="#cc2a2e" d="M 256.753906 95.75 C 243.40625 51.039062 208.140625 15.773438 163.441406 2.402344 C 161.664062 1.867188 159.902344 2.183594 158.421875 3.289062 C 157.664062 3.859375 157.074219 4.550781 156.691406 5.339844 C 197.214844 20.472656 228.796875 53.996094 241.257812 95.75 C 241.796875 97.523438 241.488281 99.289062 240.371094 100.78125 C 239.273438 102.246094 237.707031 103.046875 235.890625 103.070312 L 251.296875 103.070312 C 253.160156 103.070312 254.75 102.269531 255.855469 100.78125 C 256.972656 99.289062 257.292969 97.523438 256.753906 95.75 Z M 256.753906 95.75 " fill-opacity="1" fill-rule="evenodd"/><path fill="#20a5d5" d="M 241.730469 141.546875 C 238.628906 204.109375 186.914062 253.882812 123.574219 253.882812 C 120.976562 253.882812 118.402344 253.796875 115.835938 253.621094 C 175.582031 249.75 223.242188 201.535156 226.222656 141.546875 C 226.300781 139.933594 225.773438 138.511719 224.667969 137.335938 C 223.570312 136.1875 222.203125 135.585938 220.625 135.574219 L 236.042969 135.574219 C 237.652344 135.574219 239.046875 136.175781 240.164062 137.335938 C 241.28125 138.511719 241.808594 139.933594 241.730469 141.546875 Z M 105.851562 18.589844 C 106.007812 18.710938 106.160156 18.839844 106.300781 18.984375 C 107.476562 20.089844 108.066406 21.492188 108.066406 23.105469 L 108.066406 129.886719 C 108.066406 133.019531 110.621094 135.574219 113.753906 135.574219 L 129.25 135.574219 C 126.117188 135.574219 123.5625 133.019531 123.5625 129.886719 L 123.5625 23.09375 C 123.5625 21.480469 122.960938 20.078125 121.796875 18.972656 C 120.625 17.855469 119.210938 17.328125 117.589844 17.417969 C 113.632812 17.613281 109.710938 18.007812 105.851562 18.589844 Z M 105.851562 18.589844 " fill-opacity="1" fill-rule="evenodd"/><path fill="#82441f" d="M 872.972656 877.050781 C 872.972656 888.488281 863.613281 897.847656 852.183594 897.847656 L 872.851562 897.847656 C 884.292969 897.847656 893.640625 888.492188 893.640625 877.050781 C 893.640625 865.609375 884.28125 856.25 872.851562 856.25 L 852.183594 856.25 C 863.613281 856.25 872.972656 865.609375 872.972656 877.050781 Z M 872.972656 877.050781 " fill-opacity="1" fill-rule="evenodd"/></svg>