<svg xmlns="http://www.w3.org/2000/svg" xmlns:xlink="http://www.w3.org/1999/xlink" width="1200" zoomAndPan="magnify" viewBox="0 0 900 899.99999" height="1200" preserveAspectRatio="xMidYMid meet" version="1.0"><defs><clipPath id="627c93a3cb"><path d="M 9.492188 9.492188 L 890.742188 9.492188 L 890.742188 890.742188 L 9.492188 890.742188 Z M 9.492188 9.492188 " clip-rule="nonzero"/></clipPath><clipPath id="41c35e40d2"><path d="M 253.847656 226.195312 L 670.097656 226.195312 L 670.097656 713.695312 L 253.847656 713.695312 Z M 253.847656 226.195312 " clip-rule="nonzero"/></clipPath></defs><g clip-path="url(#627c93a3cb)"><path fill="#f0a845" d="M 864.515625 431.496094 L 468.28125 35.261719 C 452.203125 19.402344 430.175781 9.492188 405.949219 9.492188 L 97.59375 9.492188 C 48.917969 9.492188 9.492188 48.917969 9.492188 97.59375 L 9.492188 405.949219 C 9.492188 430.394531 19.402344 452.421875 35.480469 468.28125 L 431.9375 864.738281 C 447.796875 880.59375 469.820312 890.507812 494.050781 890.507812 C 518.277344 890.507812 540.523438 880.59375 556.382812 864.738281 L 864.738281 556.382812 C 880.59375 540.304688 890.507812 518.277344 890.507812 494.050781 C 890.507812 469.601562 880.59375 447.578125 864.515625 431.496094 Z M 163.667969 229.746094 C 127.105469 229.746094 97.59375 200.230469 97.59375 163.667969 C 97.59375 127.105469 127.105469 97.59375 163.667969 97.59375 C 200.230469 97.59375 229.746094 127.105469 229.746094 163.667969 C 229.746094 200.230469 200.230469 229.746094 163.667969 229.746094 Z M 163.667969 229.746094 " fill-opacity="1" fill-rule="nonzero"/></g><g clip-path="url(#41c35e40d2)"><path fill="#ca2423" d="M 462.09375 226.25 C 347.28125 226.25 253.847656 319.683594 253.847656 434.5 C 253.847656 589.738281 447.957031 705.707031 456.242188 710.566406 L 462.09375 714.015625 L 467.949219 710.566406 C 476.234375 705.707031 670.34375 589.738281 670.34375 434.5 C 670.34375 319.683594 576.910156 226.25 462.09375 226.25 Z M 462.09375 515.484375 C 417.367188 515.484375 381.109375 479.226562 381.109375 434.5 C 381.109375 389.773438 417.367188 353.515625 462.09375 353.515625 C 506.820312 353.515625 543.082031 389.773438 543.082031 434.5 C 543.082031 479.226562 506.820312 515.484375 462.09375 515.484375 Z M 462.09375 515.484375 " fill-opacity="1" fill-rule="nonzero"/></g></svg>