<svg xmlns="http://www.w3.org/2000/svg" xmlns:xlink="http://www.w3.org/1999/xlink" width="1200" zoomAndPan="magnify" viewBox="0 0 900 899.99999" height="1200" preserveAspectRatio="xMidYMid meet" version="1.0"><defs><clipPath id="6504b3f68b"><path d="M 1 21.375 L 899 21.375 L 899 869 L 1 869 Z M 1 21.375 " clip-rule="nonzero"/></clipPath></defs><g clip-path="url(#6504b3f68b)"><path fill="#427db7" d="M 1.617188 687.558594 L 28.734375 482.386719 C 29.820312 474.328125 34.3125 467.820312 41.597656 464.101562 C 48.878906 460.226562 56.9375 460.226562 64.066406 464.101562 L 239.792969 556.613281 C 247.851562 560.953125 252.65625 568.699219 252.65625 577.84375 C 252.8125 587.140625 248.160156 595.042969 240.257812 599.382812 L 191.753906 626.347656 C 217.945312 661.214844 251.261719 689.882812 289.382812 710.644531 C 345.789062 741.328125 412.578125 754.191406 481.378906 743.1875 C 536.082031 734.355469 584.894531 711.265625 624.71875 678.570312 C 650.289062 657.496094 672.136719 632.699219 689.492188 605.117188 C 695.382812 595.820312 703.75 589.777344 714.441406 587.453125 C 725.136719 585.125 735.207031 586.988281 744.503906 592.875 L 779.835938 615.964844 C 797.8125 627.585938 803.234375 651.761719 791.769531 669.890625 C 767.59375 708.632812 737.222656 743.34375 701.890625 772.476562 C 645.949219 818.5 577.457031 850.730469 500.75 863.128906 C 404.828125 878.625 311.078125 860.339844 231.425781 817.105469 C 173.46875 785.492188 122.953125 740.554688 84.988281 685.542969 L 37.414062 712.039062 C 29.199219 716.535156 19.746094 716.070312 12 710.800781 C 4.097656 705.53125 0.222656 696.855469 1.617188 687.558594 Z M 897.144531 271.949219 L 838.878906 470.453125 C 836.554688 478.359375 831.128906 484.089844 823.226562 486.726562 C 815.476562 489.359375 807.574219 488.121094 801.066406 483.160156 L 641.609375 364.769531 C 634.328125 359.347656 630.761719 350.980469 632.15625 341.835938 C 633.398438 332.847656 639.132812 325.71875 647.808594 322.464844 L 699.875 303.25 C 679.265625 264.820312 650.597656 231.347656 616.195312 205.160156 C 565.214844 166.109375 501.058594 143.175781 431.480469 143.640625 C 376.003906 143.949219 324.25 159.292969 279.773438 185.480469 C 251.417969 202.371094 226.003906 223.601562 204.617188 248.238281 C 197.488281 256.453125 188.191406 261.101562 177.34375 261.722656 C 166.34375 262.496094 156.578125 259.085938 148.367188 251.804688 L 117.0625 223.753906 C 100.949219 209.34375 99.398438 184.703125 113.5 168.433594 C 143.40625 133.878906 178.585938 104.28125 217.945312 80.878906 C 280.394531 44 353.070312 22.613281 430.707031 21.996094 C 527.867188 21.375 617.746094 53.761719 689.648438 108.773438 C 742.335938 148.910156 785.105469 200.976562 814.238281 261.101562 L 865.375 242.351562 C 874.207031 239.097656 883.507812 240.957031 890.324219 247.464844 C 897.296875 253.816406 899.777344 262.960938 897.144531 271.949219 Z M 897.144531 271.949219 " fill-opacity="1" fill-rule="evenodd"/></g><path fill="#38b6ff" d="M 360.820312 423.035156 L 412.421875 467.820312 L 504.160156 366.011719 C 505.707031 364.304688 507.722656 363.375 509.894531 363.222656 C 512.21875 363.222656 514.230469 363.839844 515.9375 365.390625 L 542.433594 389.410156 C 545.84375 392.507812 546 397.777344 543.054688 401.1875 L 427.761719 528.875 C 421.875 535.539062 411.492188 536.160156 404.671875 530.269531 L 326.574219 462.707031 C 323.164062 459.761719 322.699219 454.492188 325.644531 451.085938 L 349.042969 423.964844 C 352.140625 420.402344 357.253906 420.09375 360.820312 423.035156 Z M 477.195312 273.964844 C 571.722656 296.121094 630.609375 390.648438 608.449219 485.332031 C 586.445312 579.859375 491.761719 638.742188 397.234375 616.585938 C 302.554688 594.578125 243.824219 499.898438 265.828125 405.371094 C 287.988281 310.6875 382.515625 251.957031 477.195312 273.964844 Z M 477.195312 273.964844 " fill-opacity="1" fill-rule="evenodd"/></svg>