<svg xmlns="http://www.w3.org/2000/svg" xmlns:xlink="http://www.w3.org/1999/xlink" width="1200" zoomAndPan="magnify" viewBox="0 0 900 899.99999" height="1200" preserveAspectRatio="xMidYMid meet" version="1.0"><defs><clipPath id="1b37d013e6"><path d="M 27.816406 432 L 872.316406 432 L 872.316406 825 L 27.816406 825 Z M 27.816406 432 " clip-rule="nonzero"/></clipPath></defs><g clip-path="url(#1b37d013e6)"><path fill="#000000" d="M 599.300781 432.492188 C 554.878906 467.441406 498.945312 488.363281 438.171875 488.363281 C 378.90625 488.363281 324.199219 468.480469 280.332031 435.074219 C 137.171875 458.210938 27.816406 582.3125 27.816406 731.988281 C 27.816406 898.148438 162.523438 790.125 328.695312 790.125 L 571.421875 790.125 C 737.601562 790.125 872.316406 898.148438 872.316406 731.988281 C 872.316406 575.257812 752.398438 446.558594 599.300781 432.492188 Z M 599.300781 432.492188 " fill-opacity="1" fill-rule="nonzero"/></g><path fill="#000000" d="M 438.171875 453.347656 C 562.828125 453.347656 664.234375 351.941406 664.234375 227.296875 C 664.234375 102.660156 562.828125 1.25 438.171875 1.25 C 313.511719 1.25 212.097656 102.660156 212.097656 227.296875 C 212.105469 351.941406 313.523438 453.347656 438.171875 453.347656 Z M 438.171875 453.347656 " fill-opacity="1" fill-rule="nonzero"/></svg>